<svg width="170" height="107" viewBox="0 0 170 107" fill="none" xmlns="http://www.w3.org/2000/svg">
<path fill-rule="evenodd" clip-rule="evenodd" d="M59.3395 14.7581C68.2696 11.7238 74.1135 2.7514 84.9989 2.7514C95.8842 2.7514 101.728 11.7238 110.658 14.7581C119.589 17.793 130.242 14.4272 138.581 20.9597C146.92 27.4922 145.219 37.8725 149.971 45.5572C154.723 53.2412 165.201 57.0563 167.092 67.0652C168.982 77.0741 153.65 84.005 152 92.7429C150.35 101.481 19.4967 100.679 17.9977 92.7429C16.3473 84.005 1.01582 77.0741 2.90576 67.0652C4.79638 57.0563 15.275 53.2412 20.0267 45.5572C24.7784 37.8725 23.0777 27.4922 31.4165 20.9597C39.7554 14.4272 50.4088 17.793 59.3395 14.7581Z" fill="#7FD7C3"/>
<path fill-rule="evenodd" clip-rule="evenodd" d="M58.455 12.1532C54.2071 13.5965 49.5428 13.466 44.9556 13.8034C39.5983 14.1966 34.3518 15.165 29.7198 18.7937C25.0308 22.4673 23.0865 27.1762 21.7244 32.0933C20.5833 36.2135 19.9254 40.4899 17.6865 44.1102C15.44 47.7434 11.795 50.4191 8.53343 53.4123C4.65101 56.9742 1.2655 60.9241 0.202151 66.5557C-0.901802 72.3981 2.67229 77.5009 7.11219 82.2599C8.96772 84.2487 10.9347 86.1951 12.5349 88.1807C13.8667 89.8334 14.9589 91.4816 15.2934 93.2552C15.438 94.0192 15.8468 94.834 16.716 95.5562C17.5419 96.2432 19.1063 96.9789 21.3734 97.5721C31.3964 100.195 58.1583 101.669 84.9347 101.75C111.732 101.832 138.539 100.511 148.619 97.7365C150.914 97.1049 152.497 96.3132 153.342 95.5608C154.156 94.8359 154.56 94.0314 154.706 93.2552C155.041 91.4816 156.134 89.8334 157.465 88.1807C159.065 86.1951 161.033 84.2487 162.887 82.2599C167.328 77.5009 170.901 72.3981 169.798 66.5557C168.735 60.9241 165.349 56.9742 161.467 53.4123C158.204 50.4191 154.56 47.7434 152.314 44.1102C150.075 40.4899 149.417 36.2135 148.276 32.0933C146.914 27.1762 144.969 22.4673 140.28 18.7937C135.648 15.165 130.402 14.1966 125.045 13.8034C120.457 13.466 115.793 13.5965 111.545 12.1532C107.306 10.7125 103.827 7.8164 100.089 5.32703C95.7155 2.41483 91.0443 0 85.0001 0C78.9559 0 74.2841 2.41483 69.9109 5.32703C66.1723 7.8164 62.6939 10.7125 58.455 12.1532ZM59.3408 14.7595C68.2708 11.7253 74.1147 2.75283 85.0001 2.75283C95.8855 2.75283 101.729 11.7253 110.659 14.7595C119.59 17.7945 130.244 14.4286 138.582 20.9611C146.921 27.4936 145.221 37.874 149.972 45.5586C154.724 53.2427 165.203 57.0577 167.093 67.0666C168.983 77.0755 153.652 84.0064 152.001 92.7443C150.351 101.483 19.4979 100.681 17.9989 92.7443C16.3485 84.0064 1.01703 77.0755 2.90697 67.0666C4.79759 57.0577 15.2762 53.2427 20.0279 45.5586C24.7796 37.874 23.0789 27.4936 31.4178 20.9611C39.7566 14.4286 50.41 17.7945 59.3408 14.7595Z" fill="#383A47"/>
<path d="M50.7611 67.4225C61.5048 67.4225 70.2142 58.7131 70.2142 47.9694C70.2142 37.2258 61.5048 28.5163 50.7611 28.5163C40.0175 28.5163 31.308 37.2258 31.308 47.9694C31.308 58.7131 40.0175 67.4225 50.7611 67.4225Z" fill="#E06E9C"/>
<path fill-rule="evenodd" clip-rule="evenodd" d="M50.7625 25.7649C38.5068 25.7649 28.5566 35.715 28.5566 47.9711C28.5566 60.2268 38.5068 70.177 50.7625 70.177C63.0182 70.177 72.9684 60.2268 72.9684 47.9711C72.9684 35.715 63.0182 25.7649 50.7625 25.7649ZM50.7625 28.518C61.499 28.518 70.2153 37.2347 70.2153 47.9711C70.2153 58.7072 61.499 67.4239 50.7625 67.4239C40.0261 67.4239 31.3094 58.7072 31.3094 47.9711C31.3094 37.2347 40.0261 28.518 50.7625 28.518Z" fill="#383A47"/>
<path d="M100.468 61.1595C111.212 61.1595 119.921 52.4501 119.921 41.7064C119.921 30.9628 111.212 22.2533 100.468 22.2533C89.7242 22.2533 81.0147 30.9628 81.0147 41.7064C81.0147 52.4501 89.7242 61.1595 100.468 61.1595Z" fill="#F3F6E7"/>
<path fill-rule="evenodd" clip-rule="evenodd" d="M100.469 19.5019C88.2135 19.5019 78.2633 29.4521 78.2633 41.7082C78.2633 53.9639 88.2135 63.914 100.469 63.914C112.725 63.914 122.675 53.9639 122.675 41.7082C122.675 29.4521 112.725 19.5019 100.469 19.5019ZM100.469 22.255C111.206 22.255 119.922 30.9717 119.922 41.7082C119.922 52.4443 111.206 61.1609 100.469 61.1609C89.7328 61.1609 81.0161 52.4443 81.0161 41.7082C81.0161 30.9717 89.7328 22.255 100.469 22.255Z" fill="#383A47"/>
<path d="M121.608 69.7904C132.351 69.7904 141.061 61.081 141.061 50.3373C141.061 39.5936 132.351 30.8842 121.608 30.8842C110.864 30.8842 102.155 39.5936 102.155 50.3373C102.155 61.081 110.864 69.7904 121.608 69.7904Z" fill="#EEBDD2"/>
<path fill-rule="evenodd" clip-rule="evenodd" d="M121.609 28.1328C109.353 28.1328 99.4033 38.083 99.4033 50.339C99.4033 62.5948 109.353 72.5449 121.609 72.5449C133.865 72.5449 143.815 62.5948 143.815 50.339C143.815 38.083 133.865 28.1328 121.609 28.1328ZM121.609 30.8859C132.346 30.8859 141.062 39.6026 141.062 50.339C141.062 61.0751 132.346 69.7918 121.609 69.7918C110.873 69.7918 102.156 61.0751 102.156 50.339C102.156 39.6026 110.873 30.8859 121.609 30.8859Z" fill="#383A47"/>
<path fill-rule="evenodd" clip-rule="evenodd" d="M86.473 30.642C148.824 30.642 161.912 103.812 145.271 103.812H23.4431C8.36122 103.812 24.122 30.642 86.473 30.642Z" fill="#F6E258"/>
<path fill-rule="evenodd" clip-rule="evenodd" d="M86.473 27.8907C41.0697 27.8907 19.4276 65.2021 15.9025 87.5804C14.9207 93.8126 15.3822 98.9673 16.8937 102.101C18.311 105.04 20.5752 106.566 23.443 106.566H145.271C148.253 106.566 150.654 105.086 152.307 102.316C154.186 99.169 155.036 94.0037 154.434 87.7452C152.278 65.3163 131.979 27.8907 86.473 27.8907ZM86.473 30.6434C148.824 30.6434 161.912 103.813 145.271 103.813H23.443C8.36114 103.813 24.1219 30.6434 86.473 30.6434Z" fill="#383A47"/>
<path d="M21.2354 82.5913C21.8621 82.5913 22.3701 82.0833 22.3701 81.4566C22.3701 80.8299 21.8621 80.3218 21.2354 80.3218C20.6087 80.3218 20.1006 80.8299 20.1006 81.4566C20.1006 82.0833 20.6087 82.5913 21.2354 82.5913Z" fill="#383A47"/>
<path d="M21.2354 77.4854C21.8621 77.4854 22.3701 76.9774 22.3701 76.3507C22.3701 75.724 21.8621 75.2159 21.2354 75.2159C20.6087 75.2159 20.1006 75.724 20.1006 76.3507C20.1006 76.9774 20.6087 77.4854 21.2354 77.4854Z" fill="#383A47"/>
<path d="M21.2354 87.6837C21.8621 87.6837 22.3701 87.1757 22.3701 86.549C22.3701 85.9223 21.8621 85.4142 21.2354 85.4142C20.6087 85.4142 20.1006 85.9223 20.1006 86.549C20.1006 87.1757 20.6087 87.6837 21.2354 87.6837Z" fill="#383A47"/>
<path d="M21.2354 92.7762C21.8621 92.7762 22.3701 92.2681 22.3701 91.6414C22.3701 91.0147 21.8621 90.5067 21.2354 90.5067C20.6087 90.5067 20.1006 91.0147 20.1006 91.6414C20.1006 92.2681 20.6087 92.7762 21.2354 92.7762Z" fill="#383A47"/>
<path d="M21.2354 97.8753C21.8621 97.8753 22.3701 97.3673 22.3701 96.7406C22.3701 96.1139 21.8621 95.6059 21.2354 95.6059C20.6087 95.6059 20.1006 96.1139 20.1006 96.7406C20.1006 97.3673 20.6087 97.8753 21.2354 97.8753Z" fill="#383A47"/>
<path d="M21.2354 102.974C21.8621 102.974 22.3701 102.466 22.3701 101.84C22.3701 101.213 21.8621 100.705 21.2354 100.705C20.6087 100.705 20.1006 101.213 20.1006 101.84C20.1006 102.466 20.6087 102.974 21.2354 102.974Z" fill="#383A47"/>
<path d="M148.768 82.5913C149.395 82.5913 149.903 82.0833 149.903 81.4566C149.903 80.8299 149.395 80.3218 148.768 80.3218C148.141 80.3218 147.633 80.8299 147.633 81.4566C147.633 82.0833 148.141 82.5913 148.768 82.5913Z" fill="#383A47"/>
<path d="M148.768 77.4854C149.395 77.4854 149.903 76.9774 149.903 76.3507C149.903 75.724 149.395 75.216 148.768 75.216C148.141 75.216 147.633 75.724 147.633 76.3507C147.633 76.9774 148.141 77.4854 148.768 77.4854Z" fill="#383A47"/>
<path d="M148.768 87.6837C149.395 87.6837 149.903 87.1757 149.903 86.549C149.903 85.9223 149.395 85.4142 148.768 85.4142C148.141 85.4142 147.633 85.9223 147.633 86.549C147.633 87.1757 148.141 87.6837 148.768 87.6837Z" fill="#383A47"/>
<path d="M148.768 92.7762C149.395 92.7762 149.903 92.2681 149.903 91.6414C149.903 91.0147 149.395 90.5067 148.768 90.5067C148.141 90.5067 147.633 91.0147 147.633 91.6414C147.633 92.2681 148.141 92.7762 148.768 92.7762Z" fill="#383A47"/>
<path d="M148.768 97.8753C149.395 97.8753 149.903 97.3673 149.903 96.7406C149.903 96.1139 149.395 95.6059 148.768 95.6059C148.141 95.6059 147.633 96.1139 147.633 96.7406C147.633 97.3673 148.141 97.8753 148.768 97.8753Z" fill="#383A47"/>
<path d="M148.768 102.974C149.395 102.974 149.903 102.466 149.903 101.84C149.903 101.213 149.395 100.705 148.768 100.705C148.141 100.705 147.633 101.213 147.633 101.84C147.633 102.466 148.141 102.974 148.768 102.974Z" fill="#383A47"/>
<path d="M26.3514 82.5913C26.9781 82.5913 27.4861 82.0833 27.4861 81.4566C27.4861 80.8299 26.9781 80.3218 26.3514 80.3218C25.7247 80.3218 25.2166 80.8299 25.2166 81.4566C25.2166 82.0833 25.7247 82.5913 26.3514 82.5913Z" fill="#383A47"/>
<path d="M26.3514 87.6838C26.9781 87.6838 27.4861 87.1757 27.4861 86.549C27.4861 85.9223 26.9781 85.4143 26.3514 85.4143C25.7247 85.4143 25.2166 85.9223 25.2166 86.549C25.2166 87.1757 25.7247 87.6838 26.3514 87.6838Z" fill="#383A47"/>
<path d="M26.3514 92.7829C26.9781 92.7829 27.4861 92.2749 27.4861 91.6482C27.4861 91.0215 26.9781 90.5134 26.3514 90.5134C25.7247 90.5134 25.2166 91.0215 25.2166 91.6482C25.2166 92.2749 25.7247 92.7829 26.3514 92.7829Z" fill="#383A47"/>
<path d="M26.3514 97.8753C26.9781 97.8753 27.4861 97.3673 27.4861 96.7406C27.4861 96.1139 26.9781 95.6059 26.3514 95.6059C25.7247 95.6059 25.2166 96.1139 25.2166 96.7406C25.2166 97.3673 25.7247 97.8753 26.3514 97.8753Z" fill="#383A47"/>
<path d="M26.3514 102.974C26.9781 102.974 27.4861 102.466 27.4861 101.84C27.4861 101.213 26.9781 100.705 26.3514 100.705C25.7247 100.705 25.2166 101.213 25.2166 101.84C25.2166 102.466 25.7247 102.974 26.3514 102.974Z" fill="#383A47"/>
<path d="M31.4707 87.6838C32.0974 87.6838 32.6054 87.1757 32.6054 86.549C32.6054 85.9223 32.0974 85.4143 31.4707 85.4143C30.844 85.4143 30.336 85.9223 30.336 86.549C30.336 87.1757 30.844 87.6838 31.4707 87.6838Z" fill="#383A47"/>
<path d="M31.4707 92.7771C32.0974 92.7771 32.6054 92.2691 32.6054 91.6424C32.6054 91.0157 32.0974 90.5076 31.4707 90.5076C30.844 90.5076 30.336 91.0157 30.336 91.6424C30.336 92.2691 30.844 92.7771 31.4707 92.7771Z" fill="#383A47"/>
<path d="M31.4707 97.8753C32.0974 97.8753 32.6054 97.3673 32.6054 96.7406C32.6054 96.1139 32.0974 95.6059 31.4707 95.6059C30.844 95.6059 30.336 96.1139 30.336 96.7406C30.336 97.3673 30.844 97.8753 31.4707 97.8753Z" fill="#383A47"/>
<path d="M31.4707 102.968C32.0974 102.968 32.6054 102.46 32.6054 101.833C32.6054 101.206 32.0974 100.698 31.4707 100.698C30.844 100.698 30.336 101.206 30.336 101.833C30.336 102.46 30.844 102.968 31.4707 102.968Z" fill="#383A47"/>
<path d="M143.756 82.5913C144.383 82.5913 144.891 82.0833 144.891 81.4566C144.891 80.8299 144.383 80.3218 143.756 80.3218C143.13 80.3218 142.622 80.8299 142.622 81.4566C142.622 82.0833 143.13 82.5913 143.756 82.5913Z" fill="#383A47"/>
<path d="M143.756 87.6838C144.383 87.6838 144.891 87.1757 144.891 86.549C144.891 85.9223 144.383 85.4143 143.756 85.4143C143.13 85.4143 142.622 85.9223 142.622 86.549C142.622 87.1757 143.13 87.6838 143.756 87.6838Z" fill="#383A47"/>
<path d="M143.756 92.7829C144.383 92.7829 144.891 92.2749 144.891 91.6482C144.891 91.0215 144.383 90.5134 143.756 90.5134C143.13 90.5134 142.622 91.0215 142.622 91.6482C142.622 92.2749 143.13 92.7829 143.756 92.7829Z" fill="#383A47"/>
<path d="M143.756 97.8753C144.383 97.8753 144.891 97.3673 144.891 96.7406C144.891 96.1139 144.383 95.6059 143.756 95.6059C143.13 95.6059 142.622 96.1139 142.622 96.7406C142.622 97.3673 143.13 97.8753 143.756 97.8753Z" fill="#383A47"/>
<path d="M143.756 102.974C144.383 102.974 144.891 102.466 144.891 101.84C144.891 101.213 144.383 100.705 143.756 100.705C143.13 100.705 142.622 101.213 142.622 101.84C142.622 102.466 143.13 102.974 143.756 102.974Z" fill="#383A47"/>
<path d="M138.445 87.6838C139.072 87.6838 139.58 87.1757 139.58 86.549C139.58 85.9223 139.072 85.4143 138.445 85.4143C137.819 85.4143 137.311 85.9223 137.311 86.549C137.311 87.1757 137.819 87.6838 138.445 87.6838Z" fill="#383A47"/>
<path d="M138.445 92.7771C139.072 92.7771 139.58 92.2691 139.58 91.6424C139.58 91.0157 139.072 90.5076 138.445 90.5076C137.819 90.5076 137.311 91.0157 137.311 91.6424C137.311 92.2691 137.819 92.7771 138.445 92.7771Z" fill="#383A47"/>
<path d="M138.445 97.8753C139.072 97.8753 139.58 97.3673 139.58 96.7406C139.58 96.1139 139.072 95.6059 138.445 95.6059C137.819 95.6059 137.311 96.1139 137.311 96.7406C137.311 97.3673 137.819 97.8753 138.445 97.8753Z" fill="#383A47"/>
<path d="M138.445 102.968C139.072 102.968 139.58 102.46 139.58 101.833C139.58 101.206 139.072 100.698 138.445 100.698C137.819 100.698 137.311 101.206 137.311 101.833C137.311 102.46 137.819 102.968 138.445 102.968Z" fill="#383A47"/>
<path d="M36.5867 92.7829C37.2134 92.7829 37.7214 92.2749 37.7214 91.6482C37.7214 91.0215 37.2134 90.5134 36.5867 90.5134C35.96 90.5134 35.4519 91.0215 35.4519 91.6482C35.4519 92.2749 35.96 92.7829 36.5867 92.7829Z" fill="#383A47"/>
<path d="M36.5867 97.882C37.2134 97.882 37.7214 97.374 37.7214 96.7473C37.7214 96.1206 37.2134 95.6125 36.5867 95.6125C35.96 95.6125 35.4519 96.1206 35.4519 96.7473C35.4519 97.374 35.96 97.882 36.5867 97.882Z" fill="#383A47"/>
<path d="M36.5867 102.974C37.2134 102.974 37.7214 102.466 37.7214 101.84C37.7214 101.213 37.2134 100.705 36.5867 100.705C35.96 100.705 35.4519 101.213 35.4519 101.84C35.4519 102.466 35.96 102.974 36.5867 102.974Z" fill="#383A47"/>
<path d="M41.6791 92.7829C42.3058 92.7829 42.8139 92.2749 42.8139 91.6482C42.8139 91.0215 42.3058 90.5134 41.6791 90.5134C41.0524 90.5134 40.5444 91.0215 40.5444 91.6482C40.5444 92.2749 41.0524 92.7829 41.6791 92.7829Z" fill="#383A47"/>
<path d="M41.6791 97.882C42.3058 97.882 42.8139 97.374 42.8139 96.7473C42.8139 96.1206 42.3058 95.6125 41.6791 95.6125C41.0524 95.6125 40.5444 96.1206 40.5444 96.7473C40.5444 97.374 41.0524 97.882 41.6791 97.882Z" fill="#383A47"/>
<path d="M41.6791 102.974C42.3058 102.974 42.8139 102.466 42.8139 101.84C42.8139 101.213 42.3058 100.705 41.6791 100.705C41.0524 100.705 40.5444 101.213 40.5444 101.84C40.5444 102.466 41.0524 102.974 41.6791 102.974Z" fill="#383A47"/>
<path d="M46.7749 92.7829C47.4016 92.7829 47.9096 92.2749 47.9096 91.6482C47.9096 91.0215 47.4016 90.5134 46.7749 90.5134C46.1482 90.5134 45.6402 91.0215 45.6402 91.6482C45.6402 92.2749 46.1482 92.7829 46.7749 92.7829Z" fill="#383A47"/>
<path d="M46.7749 97.882C47.4016 97.882 47.9096 97.374 47.9096 96.7473C47.9096 96.1206 47.4016 95.6125 46.7749 95.6125C46.1482 95.6125 45.6402 96.1206 45.6402 96.7473C45.6402 97.374 46.1482 97.882 46.7749 97.882Z" fill="#383A47"/>
<path d="M46.7749 102.974C47.4016 102.974 47.9096 102.466 47.9096 101.84C47.9096 101.213 47.4016 100.705 46.7749 100.705C46.1482 100.705 45.6402 101.213 45.6402 101.84C45.6402 102.466 46.1482 102.974 46.7749 102.974Z" fill="#383A47"/>
<path d="M51.8673 92.7829C52.494 92.7829 53.0021 92.2749 53.0021 91.6482C53.0021 91.0215 52.494 90.5134 51.8673 90.5134C51.2406 90.5134 50.7326 91.0215 50.7326 91.6482C50.7326 92.2749 51.2406 92.7829 51.8673 92.7829Z" fill="#383A47"/>
<path d="M51.8673 97.882C52.494 97.882 53.0021 97.374 53.0021 96.7473C53.0021 96.1206 52.494 95.6125 51.8673 95.6125C51.2406 95.6125 50.7326 96.1206 50.7326 96.7473C50.7326 97.374 51.2406 97.882 51.8673 97.882Z" fill="#383A47"/>
<path d="M51.8673 102.974C52.494 102.974 53.0021 102.466 53.0021 101.84C53.0021 101.213 52.494 100.705 51.8673 100.705C51.2406 100.705 50.7326 101.213 50.7326 101.84C50.7326 102.466 51.2406 102.974 51.8673 102.974Z" fill="#383A47"/>
<path d="M56.9597 92.7829C57.5864 92.7829 58.0945 92.2749 58.0945 91.6482C58.0945 91.0215 57.5864 90.5134 56.9597 90.5134C56.333 90.5134 55.825 91.0215 55.825 91.6482C55.825 92.2749 56.333 92.7829 56.9597 92.7829Z" fill="#383A47"/>
<path d="M56.9597 97.882C57.5864 97.882 58.0945 97.374 58.0945 96.7473C58.0945 96.1206 57.5864 95.6125 56.9597 95.6125C56.333 95.6125 55.825 96.1206 55.825 96.7473C55.825 97.374 56.333 97.882 56.9597 97.882Z" fill="#383A47"/>
<path d="M56.9597 102.974C57.5864 102.974 58.0945 102.466 58.0945 101.84C58.0945 101.213 57.5864 100.705 56.9597 100.705C56.333 100.705 55.825 101.213 55.825 101.84C55.825 102.466 56.333 102.974 56.9597 102.974Z" fill="#383A47"/>
<path d="M62.0522 92.7829C62.6789 92.7829 63.1869 92.2749 63.1869 91.6482C63.1869 91.0215 62.6789 90.5134 62.0522 90.5134C61.4255 90.5134 60.9175 91.0215 60.9175 91.6482C60.9175 92.2749 61.4255 92.7829 62.0522 92.7829Z" fill="#383A47"/>
<path d="M62.0522 97.882C62.6789 97.882 63.1869 97.374 63.1869 96.7473C63.1869 96.1206 62.6789 95.6125 62.0522 95.6125C61.4255 95.6125 60.9175 96.1206 60.9175 96.7473C60.9175 97.374 61.4255 97.882 62.0522 97.882Z" fill="#383A47"/>
<path d="M62.0522 102.974C62.6789 102.974 63.1869 102.466 63.1869 101.84C63.1869 101.213 62.6789 100.705 62.0522 100.705C61.4255 100.705 60.9175 101.213 60.9175 101.84C60.9175 102.466 61.4255 102.974 62.0522 102.974Z" fill="#383A47"/>
<path d="M67.148 92.7829C67.7747 92.7829 68.2827 92.2749 68.2827 91.6482C68.2827 91.0215 67.7747 90.5134 67.148 90.5134C66.5213 90.5134 66.0132 91.0215 66.0132 91.6482C66.0132 92.2749 66.5213 92.7829 67.148 92.7829Z" fill="#383A47"/>
<path d="M67.148 97.882C67.7747 97.882 68.2827 97.374 68.2827 96.7473C68.2827 96.1206 67.7747 95.6125 67.148 95.6125C66.5213 95.6125 66.0132 96.1206 66.0132 96.7473C66.0132 97.374 66.5213 97.882 67.148 97.882Z" fill="#383A47"/>
<path d="M67.148 102.974C67.7747 102.974 68.2827 102.466 68.2827 101.84C68.2827 101.213 67.7747 100.705 67.148 100.705C66.5213 100.705 66.0132 101.213 66.0132 101.84C66.0132 102.466 66.5213 102.974 67.148 102.974Z" fill="#383A47"/>
<path d="M72.2404 92.7829C72.8671 92.7829 73.3752 92.2749 73.3752 91.6482C73.3752 91.0215 72.8671 90.5134 72.2404 90.5134C71.6137 90.5134 71.1057 91.0215 71.1057 91.6482C71.1057 92.2749 71.6137 92.7829 72.2404 92.7829Z" fill="#383A47"/>
<path d="M72.2404 97.882C72.8671 97.882 73.3752 97.374 73.3752 96.7473C73.3752 96.1206 72.8671 95.6125 72.2404 95.6125C71.6137 95.6125 71.1057 96.1206 71.1057 96.7473C71.1057 97.374 71.6137 97.882 72.2404 97.882Z" fill="#383A47"/>
<path d="M72.2404 102.974C72.8671 102.974 73.3752 102.466 73.3752 101.84C73.3752 101.213 72.8671 100.705 72.2404 100.705C71.6137 100.705 71.1057 101.213 71.1057 101.84C71.1057 102.466 71.6137 102.974 72.2404 102.974Z" fill="#383A47"/>
<path d="M77.3328 92.7829C77.9595 92.7829 78.4676 92.2749 78.4676 91.6482C78.4676 91.0215 77.9595 90.5134 77.3328 90.5134C76.7061 90.5134 76.1981 91.0215 76.1981 91.6482C76.1981 92.2749 76.7061 92.7829 77.3328 92.7829Z" fill="#383A47"/>
<path d="M77.3328 97.882C77.9595 97.882 78.4676 97.374 78.4676 96.7473C78.4676 96.1206 77.9595 95.6125 77.3328 95.6125C76.7061 95.6125 76.1981 96.1206 76.1981 96.7473C76.1981 97.374 76.7061 97.882 77.3328 97.882Z" fill="#383A47"/>
<path d="M77.3328 102.974C77.9595 102.974 78.4676 102.466 78.4676 101.84C78.4676 101.213 77.9595 100.705 77.3328 100.705C76.7061 100.705 76.1981 101.213 76.1981 101.84C76.1981 102.466 76.7061 102.974 77.3328 102.974Z" fill="#383A47"/>
<path d="M82.4253 92.7829C83.052 92.7829 83.56 92.2749 83.56 91.6482C83.56 91.0215 83.052 90.5134 82.4253 90.5134C81.7986 90.5134 81.2905 91.0215 81.2905 91.6482C81.2905 92.2749 81.7986 92.7829 82.4253 92.7829Z" fill="#383A47"/>
<path d="M82.4253 97.882C83.052 97.882 83.56 97.374 83.56 96.7473C83.56 96.1206 83.052 95.6125 82.4253 95.6125C81.7986 95.6125 81.2905 96.1206 81.2905 96.7473C81.2905 97.374 81.7986 97.882 82.4253 97.882Z" fill="#383A47"/>
<path d="M82.4253 102.974C83.052 102.974 83.56 102.466 83.56 101.84C83.56 101.213 83.052 100.705 82.4253 100.705C81.7986 100.705 81.2905 101.213 81.2905 101.84C81.2905 102.466 81.7986 102.974 82.4253 102.974Z" fill="#383A47"/>
<path d="M87.5211 92.7829C88.1478 92.7829 88.6558 92.2749 88.6558 91.6482C88.6558 91.0215 88.1478 90.5134 87.5211 90.5134C86.8944 90.5134 86.3863 91.0215 86.3863 91.6482C86.3863 92.2749 86.8944 92.7829 87.5211 92.7829Z" fill="#383A47"/>
<path d="M87.5211 97.882C88.1478 97.882 88.6558 97.374 88.6558 96.7473C88.6558 96.1206 88.1478 95.6125 87.5211 95.6125C86.8944 95.6125 86.3863 96.1206 86.3863 96.7473C86.3863 97.374 86.8944 97.882 87.5211 97.882Z" fill="#383A47"/>
<path d="M87.5211 102.974C88.1478 102.974 88.6558 102.466 88.6558 101.84C88.6558 101.213 88.1478 100.705 87.5211 100.705C86.8944 100.705 86.3863 101.213 86.3863 101.84C86.3863 102.466 86.8944 102.974 87.5211 102.974Z" fill="#383A47"/>
<path d="M92.6135 92.7829C93.2402 92.7829 93.7482 92.2749 93.7482 91.6482C93.7482 91.0215 93.2402 90.5134 92.6135 90.5134C91.9868 90.5134 91.4788 91.0215 91.4788 91.6482C91.4788 92.2749 91.9868 92.7829 92.6135 92.7829Z" fill="#383A47"/>
<path d="M92.6135 97.882C93.2402 97.882 93.7482 97.374 93.7482 96.7473C93.7482 96.1206 93.2402 95.6125 92.6135 95.6125C91.9868 95.6125 91.4788 96.1206 91.4788 96.7473C91.4788 97.374 91.9868 97.882 92.6135 97.882Z" fill="#383A47"/>
<path d="M92.6135 102.974C93.2402 102.974 93.7482 102.466 93.7482 101.84C93.7482 101.213 93.2402 100.705 92.6135 100.705C91.9868 100.705 91.4788 101.213 91.4788 101.84C91.4788 102.466 91.9868 102.974 92.6135 102.974Z" fill="#383A47"/>
<path d="M97.7059 92.7829C98.3326 92.7829 98.8407 92.2749 98.8407 91.6482C98.8407 91.0215 98.3326 90.5134 97.7059 90.5134C97.0792 90.5134 96.5712 91.0215 96.5712 91.6482C96.5712 92.2749 97.0792 92.7829 97.7059 92.7829Z" fill="#383A47"/>
<path d="M97.7059 97.882C98.3326 97.882 98.8407 97.374 98.8407 96.7473C98.8407 96.1206 98.3326 95.6125 97.7059 95.6125C97.0792 95.6125 96.5712 96.1206 96.5712 96.7473C96.5712 97.374 97.0792 97.882 97.7059 97.882Z" fill="#383A47"/>
<path d="M97.7059 102.974C98.3326 102.974 98.8407 102.466 98.8407 101.84C98.8407 101.213 98.3326 100.705 97.7059 100.705C97.0792 100.705 96.5712 101.213 96.5712 101.84C96.5712 102.466 97.0792 102.974 97.7059 102.974Z" fill="#383A47"/>
<path d="M102.798 92.7829C103.425 92.7829 103.933 92.2749 103.933 91.6482C103.933 91.0215 103.425 90.5134 102.798 90.5134C102.172 90.5134 101.664 91.0215 101.664 91.6482C101.664 92.2749 102.172 92.7829 102.798 92.7829Z" fill="#383A47"/>
<path d="M102.798 97.882C103.425 97.882 103.933 97.374 103.933 96.7473C103.933 96.1206 103.425 95.6125 102.798 95.6125C102.172 95.6125 101.664 96.1206 101.664 96.7473C101.664 97.374 102.172 97.882 102.798 97.882Z" fill="#383A47"/>
<path d="M102.798 102.974C103.425 102.974 103.933 102.466 103.933 101.84C103.933 101.213 103.425 100.705 102.798 100.705C102.172 100.705 101.664 101.213 101.664 101.84C101.664 102.466 102.172 102.974 102.798 102.974Z" fill="#383A47"/>
<path d="M107.894 92.7829C108.521 92.7829 109.029 92.2749 109.029 91.6482C109.029 91.0215 108.521 90.5134 107.894 90.5134C107.267 90.5134 106.759 91.0215 106.759 91.6482C106.759 92.2749 107.267 92.7829 107.894 92.7829Z" fill="#383A47"/>
<path d="M107.894 97.882C108.521 97.882 109.029 97.374 109.029 96.7473C109.029 96.1206 108.521 95.6125 107.894 95.6125C107.267 95.6125 106.759 96.1206 106.759 96.7473C106.759 97.374 107.267 97.882 107.894 97.882Z" fill="#383A47"/>
<path d="M107.894 102.974C108.521 102.974 109.029 102.466 109.029 101.84C109.029 101.213 108.521 100.705 107.894 100.705C107.267 100.705 106.759 101.213 106.759 101.84C106.759 102.466 107.267 102.974 107.894 102.974Z" fill="#383A47"/>
<path d="M112.987 92.7829C113.613 92.7829 114.121 92.2749 114.121 91.6482C114.121 91.0215 113.613 90.5134 112.987 90.5134C112.36 90.5134 111.852 91.0215 111.852 91.6482C111.852 92.2749 112.36 92.7829 112.987 92.7829Z" fill="#383A47"/>
<path d="M112.987 97.882C113.613 97.882 114.121 97.374 114.121 96.7473C114.121 96.1206 113.613 95.6125 112.987 95.6125C112.36 95.6125 111.852 96.1206 111.852 96.7473C111.852 97.374 112.36 97.882 112.987 97.882Z" fill="#383A47"/>
<path d="M112.987 102.974C113.613 102.974 114.121 102.466 114.121 101.84C114.121 101.213 113.613 100.705 112.987 100.705C112.36 100.705 111.852 101.213 111.852 101.84C111.852 102.466 112.36 102.974 112.987 102.974Z" fill="#383A47"/>
<path d="M118.079 92.7829C118.706 92.7829 119.214 92.2749 119.214 91.6482C119.214 91.0215 118.706 90.5134 118.079 90.5134C117.452 90.5134 116.944 91.0215 116.944 91.6482C116.944 92.2749 117.452 92.7829 118.079 92.7829Z" fill="#383A47"/>
<path d="M118.079 97.882C118.706 97.882 119.214 97.374 119.214 96.7473C119.214 96.1206 118.706 95.6125 118.079 95.6125C117.452 95.6125 116.944 96.1206 116.944 96.7473C116.944 97.374 117.452 97.882 118.079 97.882Z" fill="#383A47"/>
<path d="M118.079 102.974C118.706 102.974 119.214 102.466 119.214 101.84C119.214 101.213 118.706 100.705 118.079 100.705C117.452 100.705 116.944 101.213 116.944 101.84C116.944 102.466 117.452 102.974 118.079 102.974Z" fill="#383A47"/>
<path d="M123.171 92.7829C123.798 92.7829 124.306 92.2749 124.306 91.6482C124.306 91.0215 123.798 90.5134 123.171 90.5134C122.545 90.5134 122.037 91.0215 122.037 91.6482C122.037 92.2749 122.545 92.7829 123.171 92.7829Z" fill="#383A47"/>
<path d="M123.171 97.882C123.798 97.882 124.306 97.374 124.306 96.7473C124.306 96.1206 123.798 95.6125 123.171 95.6125C122.545 95.6125 122.037 96.1206 122.037 96.7473C122.037 97.374 122.545 97.882 123.171 97.882Z" fill="#383A47"/>
<path d="M123.171 102.974C123.798 102.974 124.306 102.466 124.306 101.84C124.306 101.213 123.798 100.705 123.171 100.705C122.545 100.705 122.037 101.213 122.037 101.84C122.037 102.466 122.545 102.974 123.171 102.974Z" fill="#383A47"/>
<path d="M128.267 92.7829C128.894 92.7829 129.402 92.2749 129.402 91.6482C129.402 91.0215 128.894 90.5134 128.267 90.5134C127.641 90.5134 127.133 91.0215 127.133 91.6482C127.133 92.2749 127.641 92.7829 128.267 92.7829Z" fill="#383A47"/>
<path d="M128.267 97.882C128.894 97.882 129.402 97.374 129.402 96.7473C129.402 96.1206 128.894 95.6125 128.267 95.6125C127.641 95.6125 127.133 96.1206 127.133 96.7473C127.133 97.374 127.641 97.882 128.267 97.882Z" fill="#383A47"/>
<path d="M128.267 102.974C128.894 102.974 129.402 102.466 129.402 101.84C129.402 101.213 128.894 100.705 128.267 100.705C127.641 100.705 127.133 101.213 127.133 101.84C127.133 102.466 127.641 102.974 128.267 102.974Z" fill="#383A47"/>
<path d="M133.36 92.7829C133.986 92.7829 134.494 92.2749 134.494 91.6482C134.494 91.0215 133.986 90.5134 133.36 90.5134C132.733 90.5134 132.225 91.0215 132.225 91.6482C132.225 92.2749 132.733 92.7829 133.36 92.7829Z" fill="#383A47"/>
<path d="M133.36 97.882C133.986 97.882 134.494 97.374 134.494 96.7473C134.494 96.1206 133.986 95.6125 133.36 95.6125C132.733 95.6125 132.225 96.1206 132.225 96.7473C132.225 97.374 132.733 97.882 133.36 97.882Z" fill="#383A47"/>
<path d="M133.36 102.974C133.986 102.974 134.494 102.466 134.494 101.84C134.494 101.213 133.986 100.705 133.36 100.705C132.733 100.705 132.225 101.213 132.225 101.84C132.225 102.466 132.733 102.974 133.36 102.974Z" fill="#383A47"/>
<path d="M63.0926 57.9587C67.907 57.9587 71.8098 54.0558 71.8098 49.2414C71.8098 44.427 67.907 40.5242 63.0926 40.5242C58.2782 40.5242 54.3753 44.427 54.3753 49.2414C54.3753 54.0558 58.2782 57.9587 63.0926 57.9587Z" fill="#383A47"/>
<path d="M60.9551 51.8472C63.493 51.8472 65.5504 49.7898 65.5504 47.2519C65.5504 44.714 63.493 42.6567 60.9551 42.6567C58.4172 42.6567 56.3598 44.714 56.3598 47.2519C56.3598 49.7898 58.4172 51.8472 60.9551 51.8472Z" fill="white"/>
<path d="M65.7494 55.5698C66.9951 55.5698 68.0049 54.56 68.0049 53.3143C68.0049 52.0687 66.9951 51.0589 65.7494 51.0589C64.5038 51.0589 63.494 52.0687 63.494 53.3143C63.494 54.56 64.5038 55.5698 65.7494 55.5698Z" fill="white"/>
<path d="M106.906 57.9587C111.721 57.9587 115.624 54.0558 115.624 49.2414C115.624 44.427 111.721 40.5242 106.906 40.5242C102.092 40.5242 98.1891 44.427 98.1891 49.2414C98.1891 54.0558 102.092 57.9587 106.906 57.9587Z" fill="#383A47"/>
<path d="M104.769 51.8472C107.307 51.8472 109.364 49.7898 109.364 47.2519C109.364 44.714 107.307 42.6567 104.769 42.6567C102.231 42.6567 100.174 44.714 100.174 47.2519C100.174 49.7898 102.231 51.8472 104.769 51.8472Z" fill="white"/>
<path d="M109.563 55.5698C110.809 55.5698 111.819 54.56 111.819 53.3143C111.819 52.0687 110.809 51.0589 109.563 51.0589C108.317 51.0589 107.308 52.0687 107.308 53.3143C107.308 54.56 108.317 55.5698 109.563 55.5698Z" fill="white"/>
<path d="M107.757 66.965C109.925 66.965 111.684 65.2069 111.684 63.0381C111.684 60.8694 109.925 59.1112 107.757 59.1112C105.588 59.1112 103.83 60.8694 103.83 63.0381C103.83 65.2069 105.588 66.965 107.757 66.965Z" fill="#EEBED3"/>
<path d="M62.4461 66.965C64.6149 66.965 66.373 65.2069 66.373 63.0381C66.373 60.8694 64.6149 59.1112 62.4461 59.1112C60.2773 59.1112 58.5192 60.8694 58.5192 63.0381C58.5192 65.2069 60.2773 66.965 62.4461 66.965Z" fill="#EEBED3"/>
<path fill-rule="evenodd" clip-rule="evenodd" d="M69.6744 67.8766C68.1534 67.8766 66.9214 69.1093 66.9214 70.6296C66.9214 80.3698 75.2589 88.3136 84.999 88.3136C94.7384 88.3136 103.077 80.3698 103.077 70.6296C103.077 69.1093 101.844 67.8766 100.324 67.8766H69.6744Z" fill="#383A47"/>
<path fill-rule="evenodd" clip-rule="evenodd" d="M70.8891 76.394C70.1086 74.6203 69.6728 72.6718 69.6728 70.6281H100.322C100.322 72.6718 99.8865 74.6203 99.1059 76.394H70.8891Z" fill="white"/>
</svg>
