<?xml version="1.0" standalone="no"?>
<!DOCTYPE svg PUBLIC "-//W3C//DTD SVG 20010904//EN"
 "http://www.w3.org/TR/2001/REC-SVG-20010904/DTD/svg10.dtd">
<svg version="1.0" xmlns="http://www.w3.org/2000/svg"
 width="1360.000000pt" height="1360.000000pt" viewBox="0 0 1360.000000 1360.000000"
 preserveAspectRatio="xMidYMid meet">
<metadata>
Created by potrace 1.14, written by Peter Selinger 2001-2017
</metadata>
<g transform="translate(0.000000,1360.000000) scale(0.100000,-0.100000)"
fill="#000000" stroke="none">
<path d="M6555 11065 c-330 -49 -610 -171 -1010 -443 -418 -284 -538 -361
-655 -420 -258 -128 -479 -177 -915 -202 -512 -29 -661 -44 -855 -87 -353 -77
-646 -228 -873 -451 -141 -138 -234 -266 -326 -449 -97 -194 -143 -333 -250
-750 -77 -297 -103 -384 -158 -513 -112 -261 -245 -421 -633 -763 -419 -369
-601 -579 -733 -842 -189 -378 -194 -714 -17 -1060 112 -217 215 -347 587
-745 415 -443 513 -602 513 -830 0 -41 5 -117 10 -168 43 -410 200 -669 461
-764 l64 -23 4980 0 c4800 0 4982 1 5045 18 110 31 177 73 275 171 98 99 161
203 211 348 34 98 71 275 79 373 24 288 107 425 528 875 106 113 224 241 263
285 483 549 572 992 304 1525 -136 271 -297 454 -765 868 -496 438 -595 601
-755 1242 -116 465 -207 707 -347 924 -239 371 -621 624 -1103 729 -194 43
-347 59 -850 87 -571 32 -813 109 -1230 389 -102 68 -273 183 -380 255 -310
208 -538 320 -778 381 -215 54 -482 70 -687 40z m486 -236 c159 -26 313 -76
464 -149 158 -77 286 -155 581 -357 412 -283 565 -367 798 -442 213 -68 329
-84 951 -126 475 -32 667 -66 903 -161 258 -103 484 -288 646 -529 93 -137
211 -422 261 -625 15 -63 71 -277 110 -425 86 -319 193 -547 353 -749 78 -99
267 -285 462 -456 321 -282 467 -435 587 -615 101 -153 146 -255 189 -430 47
-194 23 -370 -76 -569 -91 -181 -197 -317 -524 -665 -228 -243 -306 -331 -349
-389 -37 -51 -41 -46 -51 63 -13 134 -84 474 -138 660 -65 220 -145 441 -266
730 -91 217 -305 607 -478 870 l-33 51 19 62 c38 121 63 307 63 472 1 980
-790 1781 -1763 1784 -85 1 -185 -1 -221 -4 l-66 -5 -79 90 c-316 356 -744
572 -1204 606 -573 44 -1103 -172 -1491 -607 l-54 -61 -120 -7 c-246 -13 -616
-65 -880 -123 -95 -20 -371 -89 -420 -104 -5 -2 -45 23 -88 55 -271 201 -581
317 -925 347 -532 45 -1068 -161 -1436 -552 -229 -244 -376 -522 -453 -859
-35 -153 -44 -475 -19 -628 17 -98 51 -239 79 -322 l15 -46 -62 -84 c-503
-685 -884 -1534 -1036 -2305 -34 -174 -27 -162 -68 -108 -62 83 -159 191 -363
408 -335 357 -439 490 -533 680 -97 196 -119 367 -72 560 42 171 87 274 185
424 114 175 257 326 586 616 212 187 389 362 467 461 161 203 268 430 353 749
39 148 95 362 110 425 28 113 109 339 160 445 161 333 423 580 756 713 226 90
425 125 894 157 519 36 585 42 730 70 309 61 521 158 895 413 445 304 572 383
743 462 147 67 314 114 507 143 80 13 287 5 401 -14z m1254 -1555 c291 -45
587 -195 814 -410 55 -53 101 -99 101 -103 0 -5 -19 -13 -42 -20 -69 -20 -204
-80 -301 -134 l-91 -50 -80 26 c-483 157 -999 244 -1559 264 l-188 6 52 46
c158 140 396 274 585 330 90 26 235 53 349 65 66 7 254 -4 360 -20z m-904
-669 c1266 -101 2346 -590 3209 -1454 562 -563 996 -1250 1273 -2013 25 -70
25 -78 -4 -78 -28 0 -59 -48 -59 -90 0 -27 7 -45 27 -65 24 -24 34 -27 75 -23
l46 5 31 -111 c72 -263 122 -527 141 -736 12 -144 13 -424 0 -554 -17 -171
-72 -366 -132 -464 -20 -32 -21 -32 -40 -15 -12 11 -35 18 -60 18 -31 0 -45
-6 -64 -28 -31 -36 -32 -94 -4 -125 l20 -21 -23 -16 c-12 -9 -51 -25 -87 -35
-64 -20 -109 -20 -5005 -18 l-4940 3 -50 24 c-41 20 -46 25 -28 28 38 7 73 52
73 94 0 84 -94 126 -154 70 -14 -14 -26 -30 -26 -37 0 -35 -22 -19 -50 35 -71
141 -100 314 -100 591 0 276 36 528 126 877 l16 62 30 -29 c38 -39 84 -40 127
-4 38 32 43 87 11 127 -24 30 -78 44 -109 28 -12 -7 -21 -8 -21 -4 0 28 74
233 85 233 7 0 24 12 39 26 28 28 35 79 16 114 -7 14 3 49 46 151 237 565 560
1091 962 1569 227 269 609 629 897 844 825 616 1819 972 2880 1029 189 10 652
6 826 -8z m2621 -29 c330 -60 651 -243 880 -503 273 -311 416 -741 379 -1140
-7 -68 -16 -134 -20 -145 -7 -20 -9 -19 -32 13 -51 72 -225 275 -353 411 -456
487 -1016 890 -1617 1162 -81 36 -151 66 -157 66 -6 0 -13 4 -16 9 -14 22 274
113 430 136 123 17 383 13 506 -9z"/>
<path d="M4872 7820 c-277 -73 -489 -317 -521 -601 -32 -284 116 -563 369
-698 114 -60 182 -76 330 -75 120 0 144 3 215 28 304 105 502 398 482 713 -21
307 -245 570 -544 637 -97 22 -239 20 -331 -4z m162 -193 c70 -32 135 -97 172
-173 26 -53 29 -69 29 -154 0 -85 -3 -101 -29 -154 -48 -97 -143 -177 -240
-200 -59 -14 -161 -8 -220 14 -80 30 -165 111 -202 192 -24 54 -28 76 -28 148
0 110 32 186 110 260 114 108 265 132 408 67z m324 -664 c90 -66 104 -185 31
-268 -37 -42 -86 -59 -151 -53 -105 11 -179 118 -149 219 14 47 55 97 96 115
43 20 138 13 173 -13z"/>
<path d="M8382 7821 c-232 -57 -416 -230 -499 -468 -24 -69 -27 -93 -27 -208
-1 -110 3 -141 22 -200 76 -228 239 -396 457 -471 72 -25 94 -28 215 -28 152
0 187 7 305 64 223 108 366 310 394 557 40 339 -190 668 -525 753 -98 25 -241
25 -342 1z m165 -197 c69 -33 146 -118 173 -192 30 -79 30 -186 -1 -267 -16
-44 -38 -76 -83 -121 -79 -79 -142 -104 -260 -104 -75 0 -90 3 -154 35 -78 39
-128 88 -169 167 -25 48 -28 62 -28 158 0 96 3 110 28 158 39 75 87 124 156
161 103 55 232 57 338 5z m307 -658 c114 -66 115 -235 3 -301 -159 -93 -335
83 -242 242 48 81 156 108 239 59z"/>
<path d="M5530 5649 c-108 -21 -180 -117 -180 -239 0 -184 51 -392 139 -575
196 -403 557 -686 1006 -791 109 -25 138 -28 305 -28 167 0 197 3 304 28 193
45 337 106 493 208 385 252 626 662 649 1103 6 119 6 121 -23 175 -35 67 -89
106 -162 120 -67 13 -2466 12 -2531 -1z m2487 -311 c-7 -100 -33 -219 -67
-311 l-21 -57 -1129 0 -1129 0 -20 54 c-36 97 -63 219 -68 314 l-6 92 1223 0
1223 0 -6 -92z"/>
<path d="M2045 4627 c-38 -38 -43 -63 -20 -107 30 -59 98 -68 146 -21 56 57
27 145 -53 158 -33 5 -41 2 -73 -30z"/>
<path d="M11464 4650 c-32 -13 -54 -50 -54 -91 0 -103 147 -123 180 -25 25 77
-51 147 -126 116z"/>
<path d="M11864 4650 c-32 -13 -54 -50 -54 -91 0 -70 92 -115 146 -71 53 42
54 103 2 147 -30 26 -57 30 -94 15z"/>
<path d="M1649 4235 c-32 -17 -52 -63 -43 -98 9 -37 59 -77 96 -77 19 0 39 10
59 29 79 80 -13 200 -112 146z"/>
<path d="M2054 4232 c-53 -42 -57 -91 -10 -138 44 -44 86 -46 127 -5 21 22 29
39 29 66 0 74 -91 122 -146 77z"/>
<path d="M2455 4226 c-65 -65 -22 -166 71 -166 39 0 84 51 84 95 0 80 -100
126 -155 71z"/>
<path d="M11017 4230 c-51 -41 -43 -126 16 -156 39 -21 90 -11 117 23 67 86
-47 200 -133 133z"/>
<path d="M11455 4238 c-33 -19 -44 -41 -45 -85 0 -76 84 -119 144 -72 38 30
49 64 35 106 -17 53 -86 79 -134 51z"/>
<path d="M11839 4221 c-21 -22 -29 -39 -29 -66 0 -47 44 -95 88 -95 37 0 87
40 96 77 15 56 -36 113 -99 113 -16 0 -38 -12 -56 -29z"/>
<path d="M1647 3829 c-9 -5 -24 -24 -33 -40 -40 -78 47 -165 125 -125 87 46
61 176 -36 176 -21 0 -46 -5 -56 -11z"/>
<path d="M2057 3829 c-9 -5 -24 -24 -33 -40 -40 -78 47 -165 125 -125 37 20
51 44 51 89 0 67 -83 111 -143 76z"/>
<path d="M2467 3829 c-9 -5 -24 -24 -33 -40 -40 -78 47 -165 125 -125 37 20
51 44 51 89 0 67 -83 111 -143 76z"/>
<path d="M2865 3818 c-15 -14 -28 -38 -32 -60 -5 -33 -2 -41 30 -73 38 -38 63
-43 107 -20 56 29 67 93 24 144 -33 39 -89 43 -129 9z"/>
<path d="M3269 3811 c-32 -33 -37 -67 -15 -110 14 -26 53 -51 81 -51 48 0 95
52 95 105 0 40 -50 85 -95 85 -27 0 -44 -8 -66 -29z"/>
<path d="M3676 3814 c-45 -46 -33 -119 25 -150 79 -40 165 47 125 125 -31 58
-104 70 -150 25z"/>
<path d="M4093 3825 c-12 -8 -27 -31 -33 -50 -31 -94 99 -165 160 -88 29 37
27 97 -5 128 -28 29 -88 34 -122 10z"/>
<path d="M4495 3818 c-15 -14 -28 -38 -32 -60 -5 -33 -2 -41 30 -73 38 -38 63
-43 107 -20 56 29 67 93 24 144 -33 39 -89 43 -129 9z"/>
<path d="M4899 3811 c-32 -33 -37 -67 -15 -110 15 -29 53 -51 87 -51 34 0 89
62 89 100 0 46 -47 90 -95 90 -27 0 -44 -8 -66 -29z"/>
<path d="M5306 3814 c-45 -46 -33 -119 25 -150 79 -40 165 47 125 125 -31 58
-104 70 -150 25z"/>
<path d="M5723 3825 c-12 -8 -27 -31 -33 -50 -31 -94 99 -165 160 -88 29 37
27 97 -5 128 -28 29 -88 34 -122 10z"/>
<path d="M6125 3818 c-15 -14 -28 -38 -32 -60 -5 -33 -2 -41 30 -73 36 -36 63
-43 100 -24 60 31 74 97 31 148 -33 39 -89 43 -129 9z"/>
<path d="M6526 3809 c-14 -17 -26 -42 -26 -55 0 -56 47 -104 101 -104 12 0 37
16 56 35 32 32 35 40 30 73 -13 81 -110 112 -161 51z"/>
<path d="M6936 3814 c-45 -46 -33 -119 25 -150 79 -40 165 47 125 125 -31 58
-104 70 -150 25z"/>
<path d="M7353 3825 c-28 -20 -46 -75 -34 -106 25 -67 113 -87 157 -36 53 62
14 157 -65 157 -20 0 -46 -7 -58 -15z"/>
<path d="M7755 3818 c-15 -14 -28 -38 -32 -60 -5 -33 -2 -41 30 -73 36 -36 63
-43 100 -24 60 31 74 97 31 148 -33 39 -89 43 -129 9z"/>
<path d="M8156 3809 c-43 -51 -29 -117 31 -148 37 -19 64 -12 100 24 32 32 35
40 30 73 -13 81 -110 112 -161 51z"/>
<path d="M8566 3814 c-45 -46 -33 -119 25 -150 79 -40 165 47 125 125 -31 58
-104 70 -150 25z"/>
<path d="M8987 3829 c-27 -16 -49 -67 -42 -98 16 -74 114 -103 161 -48 53 62
14 157 -65 157 -20 0 -44 -5 -54 -11z"/>
<path d="M9385 3818 c-15 -14 -28 -38 -32 -60 -5 -33 -2 -41 30 -73 19 -19 44
-35 56 -35 54 0 101 48 101 104 0 13 -12 38 -26 55 -33 39 -89 43 -129 9z"/>
<path d="M9786 3809 c-43 -51 -29 -117 31 -148 37 -19 64 -12 100 24 32 32 35
40 30 73 -13 81 -110 112 -161 51z"/>
<path d="M10196 3814 c-58 -58 -18 -159 62 -159 69 0 112 58 92 121 -23 67
-104 87 -154 38z"/>
<path d="M10617 3829 c-27 -16 -49 -67 -42 -98 16 -74 114 -103 161 -48 53 62
14 157 -65 157 -20 0 -44 -5 -54 -11z"/>
<path d="M11009 3811 c-37 -37 -38 -79 -4 -119 45 -54 120 -49 150 9 22 41 18
74 -11 108 -36 43 -93 44 -135 2z"/>
<path d="M11435 3815 c-34 -33 -34 -93 -1 -132 44 -51 132 -31 157 36 12 31
-6 86 -34 106 -34 24 -94 19 -122 -10z"/>
<path d="M11835 3815 c-17 -17 -25 -35 -25 -60 0 -47 14 -71 51 -91 79 -40
165 47 125 125 -20 37 -44 51 -91 51 -25 0 -43 -8 -60 -25z"/>
<path d="M1632 3408 c-30 -33 -36 -70 -18 -107 20 -37 44 -51 91 -51 51 0 85
36 85 90 0 57 -34 90 -93 90 -32 0 -49 -6 -65 -22z"/>
<path d="M2042 3408 c-30 -33 -36 -70 -18 -107 20 -37 44 -51 91 -51 76 0 116
100 60 155 -33 34 -102 35 -133 3z"/>
<path d="M2449 3404 c-35 -37 -33 -98 4 -130 65 -55 157 -15 157 68 0 55 -34
88 -93 88 -34 0 -49 -6 -68 -26z"/>
<path d="M2859 3404 c-48 -51 -20 -144 49 -157 55 -11 112 38 112 94 0 28 -26
75 -45 83 -39 15 -91 6 -116 -20z"/>
<path d="M3266 3399 c-34 -41 -34 -80 3 -121 39 -44 93 -44 133 1 36 40 36 80
2 120 -21 26 -33 31 -69 31 -36 0 -48 -5 -69 -31z"/>
<path d="M3675 3405 c-47 -46 -26 -132 37 -154 34 -12 82 3 108 34 23 28 18
90 -9 119 -34 36 -101 37 -136 1z"/>
<path d="M4097 3419 c-11 -6 -25 -26 -33 -45 -32 -76 44 -152 120 -120 93 39
68 176 -31 176 -21 0 -46 -5 -56 -11z"/>
<path d="M4485 3398 c-22 -26 -26 -39 -21 -66 11 -69 73 -104 132 -76 51 24
67 80 39 133 -17 33 -33 41 -85 41 -31 0 -43 -6 -65 -32z"/>
<path d="M4909 3417 c-46 -35 -50 -94 -10 -139 39 -44 93 -44 133 1 36 40 36
80 2 120 -21 26 -33 31 -67 31 -23 0 -49 -6 -58 -13z"/>
<path d="M5305 3405 c-47 -46 -26 -132 37 -154 41 -14 92 7 113 49 19 38 13
74 -17 108 -31 32 -100 31 -133 -3z"/>
<path d="M5724 3415 c-59 -41 -47 -132 21 -160 30 -13 39 -13 69 -1 93 39 68
176 -31 176 -21 0 -48 -7 -59 -15z"/>
<path d="M6116 3399 c-33 -39 -33 -79 -1 -117 30 -36 70 -45 111 -26 51 24 67
80 39 133 -17 33 -33 41 -85 41 -30 0 -44 -6 -64 -31z"/>
<path d="M6539 3417 c-46 -35 -50 -94 -10 -139 39 -44 93 -44 133 1 36 40 36
80 2 120 -21 26 -33 31 -67 31 -23 0 -49 -6 -58 -13z"/>
<path d="M6935 3405 c-17 -17 -25 -35 -25 -60 0 -49 15 -74 56 -91 29 -12 39
-12 68 0 41 17 70 67 61 103 -17 70 -110 99 -160 48z"/>
<path d="M7345 3406 c-13 -13 -27 -35 -30 -49 -9 -36 20 -86 61 -103 29 -12
39 -12 68 0 41 17 56 42 56 91 0 77 -99 116 -155 61z"/>
<path d="M7746 3399 c-33 -39 -33 -79 -1 -117 30 -36 70 -45 111 -26 51 24 67
80 39 133 -17 33 -33 41 -85 41 -30 0 -44 -6 -64 -31z"/>
<path d="M8169 3417 c-46 -35 -50 -94 -10 -139 39 -44 93 -44 133 1 36 40 36
80 2 120 -21 26 -33 31 -67 31 -23 0 -49 -6 -58 -13z"/>
<path d="M8565 3405 c-17 -17 -25 -35 -25 -60 0 -49 15 -74 56 -91 29 -12 39
-12 68 0 41 17 70 67 61 103 -17 70 -110 99 -160 48z"/>
<path d="M8975 3406 c-13 -13 -27 -35 -30 -49 -9 -36 20 -86 61 -103 29 -12
39 -12 68 0 41 17 56 42 56 91 0 77 -99 116 -155 61z"/>
<path d="M9376 3399 c-33 -39 -33 -79 -1 -117 30 -36 70 -45 111 -26 51 24 67
80 39 133 -17 33 -33 41 -85 41 -30 0 -44 -6 -64 -31z"/>
<path d="M9799 3417 c-57 -43 -49 -131 15 -161 41 -19 81 -10 111 26 32 38 32
78 -1 117 -21 26 -33 31 -67 31 -23 0 -49 -6 -58 -13z"/>
<path d="M10195 3405 c-17 -17 -25 -35 -25 -60 0 -49 15 -74 56 -91 29 -12 39
-12 68 0 41 17 70 67 61 103 -17 70 -110 99 -160 48z"/>
<path d="M10605 3406 c-13 -13 -27 -35 -30 -49 -9 -36 20 -86 61 -103 29 -12
39 -12 68 0 41 17 56 42 56 91 0 77 -99 116 -155 61z"/>
<path d="M11006 3399 c-34 -40 -34 -80 2 -120 22 -25 36 -31 67 -31 31 0 45 6
67 31 31 35 35 68 13 110 -17 33 -33 41 -85 41 -30 0 -44 -6 -64 -31z"/>
<path d="M11435 3405 c-19 -18 -25 -35 -25 -65 0 -55 34 -90 87 -90 47 0 76
19 93 60 15 36 0 82 -34 105 -33 24 -93 19 -121 -10z"/>
<path d="M11835 3405 c-56 -56 -18 -155 60 -155 47 0 71 14 91 51 18 37 12 74
-18 107 -31 32 -100 31 -133 -3z"/>
<path d="M2080 3023 c-55 -21 -81 -83 -56 -132 20 -37 44 -51 89 -51 73 0 114
98 65 154 -23 26 -70 40 -98 29z"/>
<path d="M2455 2997 c-38 -38 -43 -63 -20 -107 30 -59 98 -68 146 -21 56 57
27 145 -53 158 -33 5 -41 2 -73 -30z"/>
<path d="M2894 3020 c-28 -11 -64 -58 -64 -82 0 -28 27 -76 49 -88 37 -19 81
-12 112 19 47 48 38 116 -21 146 -32 17 -45 18 -76 5z"/>
<path d="M3295 3018 c-61 -33 -73 -102 -26 -149 74 -73 191 6 151 102 -20 48
-81 72 -125 47z"/>
<path d="M3704 3020 c-86 -35 -59 -180 33 -180 45 0 69 14 89 51 38 74 -45
162 -122 129z"/>
<path d="M4120 3023 c-51 -20 -76 -70 -60 -119 33 -100 180 -78 180 27 0 63
-66 114 -120 92z"/>
<path d="M4494 2996 c-37 -37 -42 -62 -19 -106 30 -59 98 -68 146 -21 47 48
38 116 -21 146 -44 23 -69 18 -106 -19z"/>
<path d="M4925 3018 c-61 -33 -73 -102 -26 -149 74 -73 191 6 151 102 -20 48
-81 72 -125 47z"/>
<path d="M5334 3020 c-87 -36 -60 -180 34 -180 44 0 68 14 88 51 38 74 -45
162 -122 129z"/>
<path d="M5750 3023 c-51 -20 -76 -70 -60 -119 33 -100 180 -78 180 27 0 63
-66 114 -120 92z"/>
<path d="M6143 3018 c-31 -15 -57 -69 -49 -102 19 -76 103 -101 157 -47 47 48
38 116 -21 146 -33 17 -56 18 -87 3z"/>
<path d="M6548 3014 c-57 -30 -65 -98 -19 -145 74 -73 191 6 151 102 -13 31
-55 59 -87 59 -10 -1 -30 -7 -45 -16z"/>
<path d="M6964 3020 c-87 -36 -60 -180 34 -180 44 0 68 14 88 51 38 74 -45
162 -122 129z"/>
<path d="M7380 3023 c-51 -20 -76 -70 -60 -119 33 -100 180 -78 180 27 0 63
-66 114 -120 92z"/>
<path d="M7774 3019 c-11 -6 -29 -24 -38 -40 -56 -94 68 -187 145 -110 47 48
38 116 -21 146 -33 17 -56 18 -86 4z"/>
<path d="M8178 3014 c-57 -30 -65 -98 -19 -145 74 -73 191 6 151 102 -13 31
-55 59 -87 59 -10 -1 -30 -7 -45 -16z"/>
<path d="M8594 3020 c-89 -37 -60 -180 36 -180 46 0 76 21 90 64 24 74 -54
147 -126 116z"/>
<path d="M9010 3023 c-51 -20 -76 -70 -60 -119 33 -100 180 -78 180 27 0 63
-66 114 -120 92z"/>
<path d="M9399 3015 c-14 -8 -32 -28 -39 -44 -40 -96 77 -175 151 -102 47 48
38 116 -21 146 -36 18 -57 18 -91 0z"/>
<path d="M9808 3014 c-57 -30 -65 -98 -19 -145 74 -73 191 6 151 102 -13 31
-55 59 -87 59 -10 -1 -30 -7 -45 -16z"/>
<path d="M10224 3020 c-89 -37 -60 -180 36 -180 46 0 76 21 90 64 24 74 -54
147 -126 116z"/>
<path d="M10640 3023 c-51 -20 -76 -70 -60 -119 33 -100 180 -78 180 27 0 63
-66 114 -120 92z"/>
<path d="M11031 3016 c-84 -47 -52 -176 44 -176 44 0 95 45 95 84 0 39 -21 76
-51 92 -34 17 -57 17 -88 0z"/>
<path d="M11464 3020 c-32 -13 -54 -50 -54 -91 0 -103 147 -123 180 -25 24 74
-54 147 -126 116z"/>
</g>
</svg>
