<svg width="170" height="107" viewBox="0 0 170 107" fill="none" xmlns="http://www.w3.org/2000/svg">
<path fill-rule="evenodd" clip-rule="evenodd" d="M59.3407 14.7595C68.2707 11.7252 74.1147 2.75281 85 2.75281C95.8854 2.75281 101.729 11.7252 110.659 14.7595C119.59 17.7944 130.244 14.4286 138.582 20.9611C146.921 27.4936 145.221 37.8739 149.972 45.5586C154.724 53.2426 165.203 57.0577 167.093 67.0666C168.983 77.0755 153.652 84.0064 152.001 92.7443C150.351 101.483 19.4979 100.681 17.9989 92.7443C16.3485 84.0064 1.01699 77.0755 2.90693 67.0666C4.79755 57.0577 15.2762 53.2426 20.0278 45.5586C24.7795 37.8739 23.0789 27.4936 31.4177 20.9611C39.7565 14.4286 50.41 17.7944 59.3407 14.7595Z" fill="#7FD7C3"/>
<path fill-rule="evenodd" clip-rule="evenodd" d="M58.455 12.1532C54.2071 13.5965 49.5428 13.466 44.9556 13.8034C39.5983 14.1966 34.3518 15.165 29.7198 18.7937C25.0308 22.4673 23.0865 27.1762 21.7244 32.0933C20.5833 36.2135 19.9254 40.4899 17.6865 44.1102C15.44 47.7434 11.795 50.4191 8.53343 53.4123C4.65101 56.9742 1.2655 60.9241 0.202151 66.5557C-0.901802 72.3981 2.67229 77.5009 7.11219 82.2599C8.96772 84.2487 10.9347 86.1951 12.5349 88.1806C13.8667 89.8334 14.9589 91.4816 15.2934 93.2551C15.438 94.0192 15.8468 94.834 16.716 95.5562C17.5419 96.2432 19.1063 96.9789 21.3734 97.572C31.3964 100.195 58.1583 101.669 84.9347 101.75C111.732 101.832 138.539 100.511 148.619 97.7365C150.914 97.1049 152.497 96.3132 153.342 95.5607C154.156 94.8359 154.56 94.0314 154.706 93.2551C155.041 91.4816 156.134 89.8334 157.465 88.1806C159.065 86.1951 161.033 84.2487 162.887 82.2599C167.328 77.5009 170.901 72.3981 169.798 66.5557C168.735 60.9241 165.349 56.9742 161.467 53.4123C158.204 50.4191 154.56 47.7434 152.314 44.1102C150.075 40.4899 149.417 36.2135 148.276 32.0933C146.914 27.1762 144.969 22.4673 140.28 18.7937C135.648 15.165 130.402 14.1966 125.045 13.8034C120.457 13.466 115.793 13.5965 111.545 12.1532C107.306 10.7125 103.827 7.8164 100.089 5.32702C95.7155 2.41483 91.0443 0 85.0001 0C78.9559 0 74.2841 2.41483 69.9109 5.32702C66.1723 7.8164 62.6939 10.7125 58.455 12.1532ZM59.3408 14.7595C68.2708 11.7252 74.1147 2.75283 85.0001 2.75283C95.8855 2.75283 101.729 11.7252 110.659 14.7595C119.59 17.7945 130.244 14.4286 138.582 20.9611C146.921 27.4936 145.221 37.874 149.972 45.5586C154.724 53.2427 165.203 57.0577 167.093 67.0666C168.983 77.0755 153.652 84.0064 152.001 92.7443C150.351 101.483 19.4979 100.681 17.9989 92.7443C16.3485 84.0064 1.01703 77.0755 2.90697 67.0666C4.79759 57.0577 15.2762 53.2427 20.0279 45.5586C24.7796 37.874 23.0789 27.4936 31.4178 20.9611C39.7566 14.4286 50.41 17.7945 59.3408 14.7595Z" fill="#383A47"/>
<path d="M50.7615 67.4273C61.5051 67.4273 70.2146 58.7179 70.2146 47.9742C70.2146 37.2306 61.5051 28.5211 50.7615 28.5211C40.0178 28.5211 31.3083 37.2306 31.3083 47.9742C31.3083 58.7179 40.0178 67.4273 50.7615 67.4273Z" fill="#E06E9C"/>
<path fill-rule="evenodd" clip-rule="evenodd" d="M50.7615 25.7679C38.5058 25.7679 28.5557 35.7181 28.5557 47.9742C28.5557 60.2299 38.5058 70.18 50.7615 70.18C63.0172 70.18 72.9674 60.2299 72.9674 47.9742C72.9674 35.7181 63.0172 25.7679 50.7615 25.7679ZM50.7615 28.5211C61.498 28.5211 70.2143 37.2377 70.2143 47.9742C70.2143 58.7103 61.498 67.4269 50.7615 67.4269C40.0251 67.4269 31.3084 58.7103 31.3084 47.9742C31.3084 37.2377 40.0251 28.5211 50.7615 28.5211Z" fill="#383A47"/>
<path d="M100.47 61.1587C111.213 61.1587 119.923 52.4492 119.923 41.7056C119.923 30.9619 111.213 22.2524 100.47 22.2524C89.7262 22.2524 81.0167 30.9619 81.0167 41.7056C81.0167 52.4492 89.7262 61.1587 100.47 61.1587Z" fill="#F3F6E7"/>
<path fill-rule="evenodd" clip-rule="evenodd" d="M100.47 19.4993C88.2141 19.4993 78.2639 29.4494 78.2639 41.7055C78.2639 53.9612 88.2141 63.9114 100.47 63.9114C112.726 63.9114 122.676 53.9612 122.676 41.7055C122.676 29.4494 112.726 19.4993 100.47 19.4993ZM100.47 22.2524C111.206 22.2524 119.923 30.969 119.923 41.7055C119.923 52.4416 111.206 61.1582 100.47 61.1582C89.7333 61.1582 81.0167 52.4416 81.0167 41.7055C81.0167 30.969 89.7333 22.2524 100.47 22.2524Z" fill="#383A47"/>
<path d="M121.609 69.7892C132.353 69.7892 141.062 61.0797 141.062 50.336C141.062 39.5924 132.353 30.8829 121.609 30.8829C110.865 30.8829 102.156 39.5924 102.156 50.336C102.156 61.0797 110.865 69.7892 121.609 69.7892Z" fill="#EEBDD2"/>
<path fill-rule="evenodd" clip-rule="evenodd" d="M121.609 28.1298C109.353 28.1298 99.4032 38.0799 99.4032 50.336C99.4032 62.5917 109.353 72.5419 121.609 72.5419C133.865 72.5419 143.815 62.5917 143.815 50.336C143.815 38.0799 133.865 28.1298 121.609 28.1298ZM121.609 30.8829C132.346 30.8829 141.062 39.5995 141.062 50.336C141.062 61.0721 132.346 69.7887 121.609 69.7887C110.873 69.7887 102.156 61.0721 102.156 50.336C102.156 39.5995 110.873 30.8829 121.609 30.8829Z" fill="#383A47"/>
<path fill-rule="evenodd" clip-rule="evenodd" d="M86.4719 30.6429C148.823 30.6429 161.911 103.813 145.27 103.813H23.442C8.36007 103.813 24.1208 30.6429 86.4719 30.6429Z" fill="#F6E258"/>
<path fill-rule="evenodd" clip-rule="evenodd" d="M86.4718 27.8901C41.0686 27.8901 19.4265 65.2015 15.9013 87.5798C14.9195 93.8121 15.3811 98.9667 16.8926 102.101C18.3099 105.039 20.5741 106.566 23.4419 106.566H145.27C148.252 106.566 150.653 105.086 152.306 102.316C154.185 99.1684 155.034 94.0032 154.433 87.7446C152.276 65.3157 131.978 27.8901 86.4718 27.8901ZM86.4718 30.6429C148.823 30.6429 161.911 103.813 145.27 103.813H23.4419C8.36002 103.813 24.1208 30.6429 86.4718 30.6429Z" fill="#383A47"/>
<path d="M21.2347 82.5893C21.8614 82.5893 22.3695 82.0813 22.3695 81.4546C22.3695 80.8279 21.8614 80.3198 21.2347 80.3198C20.608 80.3198 20.1 80.8279 20.1 81.4546C20.1 82.0813 20.608 82.5893 21.2347 82.5893Z" fill="#383A47"/>
<path d="M21.2347 77.4839C21.8614 77.4839 22.3695 76.9759 22.3695 76.3492C22.3695 75.7225 21.8614 75.2145 21.2347 75.2145C20.608 75.2145 20.1 75.7225 20.1 76.3492C20.1 76.9759 20.608 77.4839 21.2347 77.4839Z" fill="#383A47"/>
<path d="M21.2347 87.6793C21.8614 87.6793 22.3695 87.1713 22.3695 86.5446C22.3695 85.9179 21.8614 85.4099 21.2347 85.4099C20.608 85.4099 20.1 85.9179 20.1 86.5446C20.1 87.1713 20.608 87.6793 21.2347 87.6793Z" fill="#383A47"/>
<path d="M21.2347 92.777C21.8614 92.777 22.3695 92.269 22.3695 91.6422C22.3695 91.0155 21.8614 90.5075 21.2347 90.5075C20.608 90.5075 20.1 91.0155 20.1 91.6422C20.1 92.269 20.608 92.777 21.2347 92.777Z" fill="#383A47"/>
<path d="M21.2347 97.8746C21.8614 97.8746 22.3695 97.3666 22.3695 96.7399C22.3695 96.1132 21.8614 95.6052 21.2347 95.6052C20.608 95.6052 20.1 96.1132 20.1 96.7399C20.1 97.3666 20.608 97.8746 21.2347 97.8746Z" fill="#383A47"/>
<path d="M21.2347 102.972C21.8614 102.972 22.3695 102.464 22.3695 101.838C22.3695 101.211 21.8614 100.703 21.2347 100.703C20.608 100.703 20.1 101.211 20.1 101.838C20.1 102.464 20.608 102.972 21.2347 102.972Z" fill="#383A47"/>
<path d="M148.766 82.5893C149.393 82.5893 149.901 82.0813 149.901 81.4546C149.901 80.8279 149.393 80.3198 148.766 80.3198C148.139 80.3198 147.631 80.8279 147.631 81.4546C147.631 82.0813 148.139 82.5893 148.766 82.5893Z" fill="#383A47"/>
<path d="M148.766 77.484C149.393 77.484 149.901 76.9759 149.901 76.3492C149.901 75.7225 149.393 75.2145 148.766 75.2145C148.139 75.2145 147.631 75.7225 147.631 76.3492C147.631 76.9759 148.139 77.484 148.766 77.484Z" fill="#383A47"/>
<path d="M148.766 87.6793C149.393 87.6793 149.901 87.1713 149.901 86.5446C149.901 85.9179 149.393 85.4099 148.766 85.4099C148.139 85.4099 147.631 85.9179 147.631 86.5446C147.631 87.1713 148.139 87.6793 148.766 87.6793Z" fill="#383A47"/>
<path d="M148.766 92.777C149.393 92.777 149.901 92.269 149.901 91.6422C149.901 91.0155 149.393 90.5075 148.766 90.5075C148.139 90.5075 147.631 91.0155 147.631 91.6422C147.631 92.269 148.139 92.777 148.766 92.777Z" fill="#383A47"/>
<path d="M148.766 97.8746C149.393 97.8746 149.901 97.3666 149.901 96.7399C149.901 96.1132 149.393 95.6052 148.766 95.6052C148.139 95.6052 147.631 96.1132 147.631 96.7399C147.631 97.3666 148.139 97.8746 148.766 97.8746Z" fill="#383A47"/>
<path d="M148.766 102.972C149.393 102.972 149.901 102.464 149.901 101.838C149.901 101.211 149.393 100.703 148.766 100.703C148.139 100.703 147.631 101.211 147.631 101.838C147.631 102.464 148.139 102.972 148.766 102.972Z" fill="#383A47"/>
<path d="M26.3521 82.5893C26.9788 82.5893 27.4869 82.0813 27.4869 81.4546C27.4869 80.8279 26.9788 80.3198 26.3521 80.3198C25.7254 80.3198 25.2174 80.8279 25.2174 81.4546C25.2174 82.0813 25.7254 82.5893 26.3521 82.5893Z" fill="#383A47"/>
<path d="M26.3521 87.6851C26.9788 87.6851 27.4869 87.177 27.4869 86.5503C27.4869 85.9236 26.9788 85.4156 26.3521 85.4156C25.7254 85.4156 25.2174 85.9236 25.2174 86.5503C25.2174 87.177 25.7254 87.6851 26.3521 87.6851Z" fill="#383A47"/>
<path d="M26.3521 92.7808C26.9788 92.7808 27.4869 92.2727 27.4869 91.646C27.4869 91.0193 26.9788 90.5113 26.3521 90.5113C25.7254 90.5113 25.2174 91.0193 25.2174 91.646C25.2174 92.2727 25.7254 92.7808 26.3521 92.7808Z" fill="#383A47"/>
<path d="M26.3521 97.8766C26.9788 97.8766 27.4869 97.3686 27.4869 96.7419C27.4869 96.1152 26.9788 95.6071 26.3521 95.6071C25.7254 95.6071 25.2174 96.1152 25.2174 96.7419C25.2174 97.3686 25.7254 97.8766 26.3521 97.8766Z" fill="#383A47"/>
<path d="M26.3521 102.972C26.9788 102.972 27.4869 102.464 27.4869 101.838C27.4869 101.211 26.9788 100.703 26.3521 100.703C25.7254 100.703 25.2174 101.211 25.2174 101.838C25.2174 102.464 25.7254 102.972 26.3521 102.972Z" fill="#383A47"/>
<path d="M31.4693 87.685C32.096 87.685 32.6041 87.177 32.6041 86.5503C32.6041 85.9236 32.096 85.4155 31.4693 85.4155C30.8426 85.4155 30.3346 85.9236 30.3346 86.5503C30.3346 87.177 30.8426 87.685 31.4693 87.685Z" fill="#383A47"/>
<path d="M31.4693 92.7807C32.096 92.7807 32.6041 92.2727 32.6041 91.646C32.6041 91.0193 32.096 90.5112 31.4693 90.5112C30.8426 90.5112 30.3346 91.0193 30.3346 91.646C30.3346 92.2727 30.8426 92.7807 31.4693 92.7807Z" fill="#383A47"/>
<path d="M31.4693 97.8766C32.096 97.8766 32.6041 97.3686 32.6041 96.7419C32.6041 96.1152 32.096 95.6071 31.4693 95.6071C30.8426 95.6071 30.3346 96.1152 30.3346 96.7419C30.3346 97.3686 30.8426 97.8766 31.4693 97.8766Z" fill="#383A47"/>
<path d="M31.4693 102.972C32.096 102.972 32.6041 102.464 32.6041 101.838C32.6041 101.211 32.096 100.703 31.4693 100.703C30.8426 100.703 30.3346 101.211 30.3346 101.838C30.3346 102.464 30.8426 102.972 31.4693 102.972Z" fill="#383A47"/>
<path d="M143.754 82.5893C144.381 82.5893 144.889 82.0813 144.889 81.4546C144.889 80.8279 144.381 80.3198 143.754 80.3198C143.128 80.3198 142.62 80.8279 142.62 81.4546C142.62 82.0813 143.128 82.5893 143.754 82.5893Z" fill="#383A47"/>
<path d="M143.754 87.6851C144.381 87.6851 144.889 87.177 144.889 86.5503C144.889 85.9236 144.381 85.4156 143.754 85.4156C143.128 85.4156 142.62 85.9236 142.62 86.5503C142.62 87.177 143.128 87.6851 143.754 87.6851Z" fill="#383A47"/>
<path d="M143.754 92.7808C144.381 92.7808 144.889 92.2727 144.889 91.646C144.889 91.0193 144.381 90.5113 143.754 90.5113C143.128 90.5113 142.62 91.0193 142.62 91.646C142.62 92.2727 143.128 92.7808 143.754 92.7808Z" fill="#383A47"/>
<path d="M143.754 97.8766C144.381 97.8766 144.889 97.3686 144.889 96.7419C144.889 96.1152 144.381 95.6071 143.754 95.6071C143.128 95.6071 142.62 96.1152 142.62 96.7419C142.62 97.3686 143.128 97.8766 143.754 97.8766Z" fill="#383A47"/>
<path d="M143.754 102.972C144.381 102.972 144.889 102.464 144.889 101.838C144.889 101.211 144.381 100.703 143.754 100.703C143.128 100.703 142.62 101.211 142.62 101.838C142.62 102.464 143.128 102.972 143.754 102.972Z" fill="#383A47"/>
<path d="M138.445 87.685C139.071 87.685 139.579 87.177 139.579 86.5503C139.579 85.9236 139.071 85.4155 138.445 85.4155C137.818 85.4155 137.31 85.9236 137.31 86.5503C137.31 87.177 137.818 87.685 138.445 87.685Z" fill="#383A47"/>
<path d="M138.445 92.7807C139.071 92.7807 139.579 92.2727 139.579 91.646C139.579 91.0193 139.071 90.5112 138.445 90.5112C137.818 90.5112 137.31 91.0193 137.31 91.646C137.31 92.2727 137.818 92.7807 138.445 92.7807Z" fill="#383A47"/>
<path d="M138.445 97.8766C139.071 97.8766 139.579 97.3686 139.579 96.7419C139.579 96.1152 139.071 95.6071 138.445 95.6071C137.818 95.6071 137.31 96.1152 137.31 96.7419C137.31 97.3686 137.818 97.8766 138.445 97.8766Z" fill="#383A47"/>
<path d="M138.445 102.972C139.071 102.972 139.579 102.464 139.579 101.838C139.579 101.211 139.071 100.703 138.445 100.703C137.818 100.703 137.31 101.211 137.31 101.838C137.31 102.464 137.818 102.972 138.445 102.972Z" fill="#383A47"/>
<path d="M36.5867 92.7807C37.2134 92.7807 37.7215 92.2727 37.7215 91.646C37.7215 91.0193 37.2134 90.5112 36.5867 90.5112C35.9601 90.5112 35.452 91.0193 35.452 91.646C35.452 92.2727 35.9601 92.7807 36.5867 92.7807Z" fill="#383A47"/>
<path d="M36.5867 97.8766C37.2134 97.8766 37.7215 97.3686 37.7215 96.7419C37.7215 96.1152 37.2134 95.6071 36.5867 95.6071C35.9601 95.6071 35.452 96.1152 35.452 96.7419C35.452 97.3686 35.9601 97.8766 36.5867 97.8766Z" fill="#383A47"/>
<path d="M36.5867 102.972C37.2134 102.972 37.7215 102.464 37.7215 101.838C37.7215 101.211 37.2134 100.703 36.5867 100.703C35.9601 100.703 35.452 101.211 35.452 101.838C35.452 102.464 35.9601 102.972 36.5867 102.972Z" fill="#383A47"/>
<path d="M41.68 92.7807C42.3067 92.7807 42.8148 92.2727 42.8148 91.646C42.8148 91.0193 42.3067 90.5112 41.68 90.5112C41.0533 90.5112 40.5453 91.0193 40.5453 91.646C40.5453 92.2727 41.0533 92.7807 41.68 92.7807Z" fill="#383A47"/>
<path d="M41.68 97.8766C42.3067 97.8766 42.8148 97.3686 42.8148 96.7419C42.8148 96.1152 42.3067 95.6071 41.68 95.6071C41.0533 95.6071 40.5453 96.1152 40.5453 96.7419C40.5453 97.3686 41.0533 97.8766 41.68 97.8766Z" fill="#383A47"/>
<path d="M41.68 102.972C42.3067 102.972 42.8148 102.464 42.8148 101.838C42.8148 101.211 42.3067 100.703 41.68 100.703C41.0533 100.703 40.5453 101.211 40.5453 101.838C40.5453 102.464 41.0533 102.972 41.68 102.972Z" fill="#383A47"/>
<path d="M46.7732 92.7807C47.3999 92.7807 47.9079 92.2727 47.9079 91.646C47.9079 91.0193 47.3999 90.5112 46.7732 90.5112C46.1465 90.5112 45.6384 91.0193 45.6384 91.646C45.6384 92.2727 46.1465 92.7807 46.7732 92.7807Z" fill="#383A47"/>
<path d="M46.7732 97.8766C47.3999 97.8766 47.9079 97.3686 47.9079 96.7419C47.9079 96.1152 47.3999 95.6071 46.7732 95.6071C46.1465 95.6071 45.6384 96.1152 45.6384 96.7419C45.6384 97.3686 46.1465 97.8766 46.7732 97.8766Z" fill="#383A47"/>
<path d="M46.7732 102.972C47.3999 102.972 47.9079 102.464 47.9079 101.838C47.9079 101.211 47.3999 100.703 46.7732 100.703C46.1465 100.703 45.6384 101.211 45.6384 101.838C45.6384 102.464 46.1465 102.972 46.7732 102.972Z" fill="#383A47"/>
<path d="M51.8667 92.7807C52.4934 92.7807 53.0014 92.2727 53.0014 91.646C53.0014 91.0193 52.4934 90.5112 51.8667 90.5112C51.24 90.5112 50.7319 91.0193 50.7319 91.646C50.7319 92.2727 51.24 92.7807 51.8667 92.7807Z" fill="#383A47"/>
<path d="M51.8667 97.8766C52.4934 97.8766 53.0014 97.3686 53.0014 96.7419C53.0014 96.1152 52.4934 95.6071 51.8667 95.6071C51.24 95.6071 50.7319 96.1152 50.7319 96.7419C50.7319 97.3686 51.24 97.8766 51.8667 97.8766Z" fill="#383A47"/>
<path d="M51.8667 102.972C52.4934 102.972 53.0014 102.464 53.0014 101.838C53.0014 101.211 52.4934 100.703 51.8667 100.703C51.24 100.703 50.7319 101.211 50.7319 101.838C50.7319 102.464 51.24 102.972 51.8667 102.972Z" fill="#383A47"/>
<path d="M56.9599 92.7807C57.5866 92.7807 58.0947 92.2727 58.0947 91.646C58.0947 91.0193 57.5866 90.5112 56.9599 90.5112C56.3332 90.5112 55.8252 91.0193 55.8252 91.646C55.8252 92.2727 56.3332 92.7807 56.9599 92.7807Z" fill="#383A47"/>
<path d="M56.9599 97.8766C57.5866 97.8766 58.0947 97.3686 58.0947 96.7419C58.0947 96.1152 57.5866 95.6071 56.9599 95.6071C56.3332 95.6071 55.8252 96.1152 55.8252 96.7419C55.8252 97.3686 56.3332 97.8766 56.9599 97.8766Z" fill="#383A47"/>
<path d="M56.9599 102.972C57.5866 102.972 58.0947 102.464 58.0947 101.838C58.0947 101.211 57.5866 100.703 56.9599 100.703C56.3332 100.703 55.8252 101.211 55.8252 101.838C55.8252 102.464 56.3332 102.972 56.9599 102.972Z" fill="#383A47"/>
<path d="M62.0531 92.7807C62.6798 92.7807 63.1878 92.2727 63.1878 91.646C63.1878 91.0193 62.6798 90.5112 62.0531 90.5112C61.4264 90.5112 60.9183 91.0193 60.9183 91.646C60.9183 92.2727 61.4264 92.7807 62.0531 92.7807Z" fill="#383A47"/>
<path d="M62.0531 97.8766C62.6798 97.8766 63.1878 97.3686 63.1878 96.7419C63.1878 96.1152 62.6798 95.6071 62.0531 95.6071C61.4264 95.6071 60.9183 96.1152 60.9183 96.7419C60.9183 97.3686 61.4264 97.8766 62.0531 97.8766Z" fill="#383A47"/>
<path d="M62.0531 102.972C62.6798 102.972 63.1878 102.464 63.1878 101.838C63.1878 101.211 62.6798 100.703 62.0531 100.703C61.4264 100.703 60.9183 101.211 60.9183 101.838C60.9183 102.464 61.4264 102.972 62.0531 102.972Z" fill="#383A47"/>
<path d="M67.1464 92.7807C67.7731 92.7807 68.2812 92.2727 68.2812 91.646C68.2812 91.0193 67.7731 90.5112 67.1464 90.5112C66.5197 90.5112 66.0117 91.0193 66.0117 91.646C66.0117 92.2727 66.5197 92.7807 67.1464 92.7807Z" fill="#383A47"/>
<path d="M67.1464 97.8766C67.7731 97.8766 68.2812 97.3686 68.2812 96.7419C68.2812 96.1152 67.7731 95.6071 67.1464 95.6071C66.5197 95.6071 66.0117 96.1152 66.0117 96.7419C66.0117 97.3686 66.5197 97.8766 67.1464 97.8766Z" fill="#383A47"/>
<path d="M67.1464 102.972C67.7731 102.972 68.2812 102.464 68.2812 101.838C68.2812 101.211 67.7731 100.703 67.1464 100.703C66.5197 100.703 66.0117 101.211 66.0117 101.838C66.0117 102.464 66.5197 102.972 67.1464 102.972Z" fill="#383A47"/>
<path d="M72.2397 92.7807C72.8664 92.7807 73.3745 92.2727 73.3745 91.646C73.3745 91.0193 72.8664 90.5112 72.2397 90.5112C71.613 90.5112 71.105 91.0193 71.105 91.646C71.105 92.2727 71.613 92.7807 72.2397 92.7807Z" fill="#383A47"/>
<path d="M72.2397 97.8766C72.8664 97.8766 73.3745 97.3686 73.3745 96.7419C73.3745 96.1152 72.8664 95.6071 72.2397 95.6071C71.613 95.6071 71.105 96.1152 71.105 96.7419C71.105 97.3686 71.613 97.8766 72.2397 97.8766Z" fill="#383A47"/>
<path d="M72.2397 102.972C72.8664 102.972 73.3745 102.464 73.3745 101.838C73.3745 101.211 72.8664 100.703 72.2397 100.703C71.613 100.703 71.105 101.211 71.105 101.838C71.105 102.464 71.613 102.972 72.2397 102.972Z" fill="#383A47"/>
<path d="M77.333 92.7807C77.9597 92.7807 78.4677 92.2727 78.4677 91.646C78.4677 91.0193 77.9597 90.5112 77.333 90.5112C76.7063 90.5112 76.1982 91.0193 76.1982 91.646C76.1982 92.2727 76.7063 92.7807 77.333 92.7807Z" fill="#383A47"/>
<path d="M77.3328 97.8766C77.9595 97.8766 78.4676 97.3686 78.4676 96.7419C78.4676 96.1152 77.9595 95.6071 77.3328 95.6071C76.7061 95.6071 76.1981 96.1152 76.1981 96.7419C76.1981 97.3686 76.7061 97.8766 77.3328 97.8766Z" fill="#383A47"/>
<path d="M77.3328 102.972C77.9595 102.972 78.4676 102.464 78.4676 101.838C78.4676 101.211 77.9595 100.703 77.3328 100.703C76.7061 100.703 76.1981 101.211 76.1981 101.838C76.1981 102.464 76.7061 102.972 77.3328 102.972Z" fill="#383A47"/>
<path d="M82.4262 92.7807C83.0529 92.7807 83.561 92.2727 83.561 91.646C83.561 91.0193 83.0529 90.5112 82.4262 90.5112C81.7995 90.5112 81.2915 91.0193 81.2915 91.646C81.2915 92.2727 81.7995 92.7807 82.4262 92.7807Z" fill="#383A47"/>
<path d="M82.4262 97.8766C83.0529 97.8766 83.561 97.3686 83.561 96.7419C83.561 96.1152 83.0529 95.6071 82.4262 95.6071C81.7995 95.6071 81.2915 96.1152 81.2915 96.7419C81.2915 97.3686 81.7995 97.8766 82.4262 97.8766Z" fill="#383A47"/>
<path d="M82.4262 102.972C83.0529 102.972 83.561 102.464 83.561 101.838C83.561 101.211 83.0529 100.703 82.4262 100.703C81.7995 100.703 81.2915 101.211 81.2915 101.838C81.2915 102.464 81.7995 102.972 82.4262 102.972Z" fill="#383A47"/>
<path d="M87.5196 92.7807C88.1463 92.7807 88.6544 92.2727 88.6544 91.646C88.6544 91.0193 88.1463 90.5112 87.5196 90.5112C86.8929 90.5112 86.3849 91.0193 86.3849 91.646C86.3849 92.2727 86.8929 92.7807 87.5196 92.7807Z" fill="#383A47"/>
<path d="M87.5196 97.8766C88.1463 97.8766 88.6544 97.3686 88.6544 96.7419C88.6544 96.1152 88.1463 95.6071 87.5196 95.6071C86.8929 95.6071 86.3849 96.1152 86.3849 96.7419C86.3849 97.3686 86.8929 97.8766 87.5196 97.8766Z" fill="#383A47"/>
<path d="M87.5196 102.972C88.1463 102.972 88.6544 102.464 88.6544 101.838C88.6544 101.211 88.1463 100.703 87.5196 100.703C86.8929 100.703 86.3849 101.211 86.3849 101.838C86.3849 102.464 86.8929 102.972 87.5196 102.972Z" fill="#383A47"/>
<path d="M92.6128 92.7807C93.2395 92.7807 93.7475 92.2727 93.7475 91.646C93.7475 91.0193 93.2395 90.5112 92.6128 90.5112C91.9861 90.5112 91.478 91.0193 91.478 91.646C91.478 92.2727 91.9861 92.7807 92.6128 92.7807Z" fill="#383A47"/>
<path d="M92.6128 97.8766C93.2395 97.8766 93.7475 97.3686 93.7475 96.7419C93.7475 96.1152 93.2395 95.6071 92.6128 95.6071C91.9861 95.6071 91.478 96.1152 91.478 96.7419C91.478 97.3686 91.9861 97.8766 92.6128 97.8766Z" fill="#383A47"/>
<path d="M92.6128 102.972C93.2395 102.972 93.7475 102.464 93.7475 101.838C93.7475 101.211 93.2395 100.703 92.6128 100.703C91.9861 100.703 91.478 101.211 91.478 101.838C91.478 102.464 91.9861 102.972 92.6128 102.972Z" fill="#383A47"/>
<path d="M97.7063 92.7807C98.333 92.7807 98.841 92.2727 98.841 91.646C98.841 91.0193 98.333 90.5112 97.7063 90.5112C97.0796 90.5112 96.5715 91.0193 96.5715 91.646C96.5715 92.2727 97.0796 92.7807 97.7063 92.7807Z" fill="#383A47"/>
<path d="M97.7063 97.8766C98.333 97.8766 98.841 97.3686 98.841 96.7419C98.841 96.1152 98.333 95.6071 97.7063 95.6071C97.0796 95.6071 96.5715 96.1152 96.5715 96.7419C96.5715 97.3686 97.0796 97.8766 97.7063 97.8766Z" fill="#383A47"/>
<path d="M97.7063 102.972C98.333 102.972 98.841 102.464 98.841 101.838C98.841 101.211 98.333 100.703 97.7063 100.703C97.0796 100.703 96.5715 101.211 96.5715 101.838C96.5715 102.464 97.0796 102.972 97.7063 102.972Z" fill="#383A47"/>
<path d="M102.799 92.7807C103.426 92.7807 103.934 92.2727 103.934 91.646C103.934 91.0193 103.426 90.5112 102.799 90.5112C102.173 90.5112 101.665 91.0193 101.665 91.646C101.665 92.2727 102.173 92.7807 102.799 92.7807Z" fill="#383A47"/>
<path d="M102.799 97.8766C103.426 97.8766 103.934 97.3686 103.934 96.7419C103.934 96.1152 103.426 95.6071 102.799 95.6071C102.173 95.6071 101.665 96.1152 101.665 96.7419C101.665 97.3686 102.173 97.8766 102.799 97.8766Z" fill="#383A47"/>
<path d="M102.799 102.972C103.426 102.972 103.934 102.464 103.934 101.838C103.934 101.211 103.426 100.703 102.799 100.703C102.173 100.703 101.665 101.211 101.665 101.838C101.665 102.464 102.173 102.972 102.799 102.972Z" fill="#383A47"/>
<path d="M107.892 92.7807C108.519 92.7807 109.027 92.2727 109.027 91.646C109.027 91.0193 108.519 90.5112 107.892 90.5112C107.266 90.5112 106.758 91.0193 106.758 91.646C106.758 92.2727 107.266 92.7807 107.892 92.7807Z" fill="#383A47"/>
<path d="M107.892 97.8766C108.519 97.8766 109.027 97.3686 109.027 96.7419C109.027 96.1152 108.519 95.6071 107.892 95.6071C107.266 95.6071 106.758 96.1152 106.758 96.7419C106.758 97.3686 107.266 97.8766 107.892 97.8766Z" fill="#383A47"/>
<path d="M107.892 102.972C108.519 102.972 109.027 102.464 109.027 101.838C109.027 101.211 108.519 100.703 107.892 100.703C107.266 100.703 106.758 101.211 106.758 101.838C106.758 102.464 107.266 102.972 107.892 102.972Z" fill="#383A47"/>
<path d="M112.986 92.7807C113.613 92.7807 114.121 92.2727 114.121 91.646C114.121 91.0193 113.613 90.5112 112.986 90.5112C112.359 90.5112 111.851 91.0193 111.851 91.646C111.851 92.2727 112.359 92.7807 112.986 92.7807Z" fill="#383A47"/>
<path d="M112.986 97.8766C113.613 97.8766 114.121 97.3686 114.121 96.7419C114.121 96.1152 113.613 95.6071 112.986 95.6071C112.359 95.6071 111.851 96.1152 111.851 96.7419C111.851 97.3686 112.359 97.8766 112.986 97.8766Z" fill="#383A47"/>
<path d="M112.986 102.972C113.613 102.972 114.121 102.464 114.121 101.838C114.121 101.211 113.613 100.703 112.986 100.703C112.359 100.703 111.851 101.211 111.851 101.838C111.851 102.464 112.359 102.972 112.986 102.972Z" fill="#383A47"/>
<path d="M118.079 92.7807C118.706 92.7807 119.214 92.2727 119.214 91.646C119.214 91.0193 118.706 90.5112 118.079 90.5112C117.452 90.5112 116.944 91.0193 116.944 91.646C116.944 92.2727 117.452 92.7807 118.079 92.7807Z" fill="#383A47"/>
<path d="M118.079 97.8766C118.706 97.8766 119.214 97.3686 119.214 96.7419C119.214 96.1152 118.706 95.6071 118.079 95.6071C117.452 95.6071 116.944 96.1152 116.944 96.7419C116.944 97.3686 117.452 97.8766 118.079 97.8766Z" fill="#383A47"/>
<path d="M118.079 102.972C118.706 102.972 119.214 102.464 119.214 101.838C119.214 101.211 118.706 100.703 118.079 100.703C117.452 100.703 116.944 101.211 116.944 101.838C116.944 102.464 117.452 102.972 118.079 102.972Z" fill="#383A47"/>
<path d="M123.172 92.7807C123.799 92.7807 124.307 92.2727 124.307 91.646C124.307 91.0193 123.799 90.5112 123.172 90.5112C122.546 90.5112 122.037 91.0193 122.037 91.646C122.037 92.2727 122.546 92.7807 123.172 92.7807Z" fill="#383A47"/>
<path d="M123.172 97.8766C123.799 97.8766 124.307 97.3686 124.307 96.7419C124.307 96.1152 123.799 95.6071 123.172 95.6071C122.546 95.6071 122.037 96.1152 122.037 96.7419C122.037 97.3686 122.546 97.8766 123.172 97.8766Z" fill="#383A47"/>
<path d="M123.172 102.972C123.799 102.972 124.307 102.464 124.307 101.838C124.307 101.211 123.799 100.703 123.172 100.703C122.546 100.703 122.037 101.211 122.037 101.838C122.037 102.464 122.546 102.972 123.172 102.972Z" fill="#383A47"/>
<path d="M128.266 92.7807C128.893 92.7807 129.401 92.2727 129.401 91.646C129.401 91.0193 128.893 90.5112 128.266 90.5112C127.639 90.5112 127.131 91.0193 127.131 91.646C127.131 92.2727 127.639 92.7807 128.266 92.7807Z" fill="#383A47"/>
<path d="M128.266 97.8766C128.893 97.8766 129.401 97.3686 129.401 96.7419C129.401 96.1152 128.893 95.6071 128.266 95.6071C127.639 95.6071 127.131 96.1152 127.131 96.7419C127.131 97.3686 127.639 97.8766 128.266 97.8766Z" fill="#383A47"/>
<path d="M128.266 102.972C128.893 102.972 129.401 102.464 129.401 101.838C129.401 101.211 128.893 100.703 128.266 100.703C127.639 100.703 127.131 101.211 127.131 101.838C127.131 102.464 127.639 102.972 128.266 102.972Z" fill="#383A47"/>
<path d="M133.359 92.7807C133.986 92.7807 134.494 92.2727 134.494 91.646C134.494 91.0193 133.986 90.5112 133.359 90.5112C132.732 90.5112 132.224 91.0193 132.224 91.646C132.224 92.2727 132.732 92.7807 133.359 92.7807Z" fill="#383A47"/>
<path d="M133.359 97.8766C133.986 97.8766 134.494 97.3686 134.494 96.7419C134.494 96.1152 133.986 95.6071 133.359 95.6071C132.732 95.6071 132.224 96.1152 132.224 96.7419C132.224 97.3686 132.732 97.8766 133.359 97.8766Z" fill="#383A47"/>
<path d="M133.359 102.972C133.986 102.972 134.494 102.464 134.494 101.838C134.494 101.211 133.986 100.703 133.359 100.703C132.732 100.703 132.224 101.211 132.224 101.838C132.224 102.464 132.732 102.972 133.359 102.972Z" fill="#383A47"/>
<path d="M63.0931 40.5239C58.2787 40.5239 54.3758 44.4267 54.3758 49.2411C54.3758 54.0555 58.2787 57.9584 63.0931 57.9584C67.9075 57.9584 71.8103 54.0555 71.8103 49.2411C71.8103 44.4267 67.9075 40.5239 63.0931 40.5239Z" fill="#383A47"/>
<path d="M65.2315 46.6363C62.6936 46.6363 60.6363 48.6937 60.6363 51.2316C60.6363 53.7695 62.6936 55.8268 65.2315 55.8268C67.7694 55.8268 69.8268 53.7695 69.8268 51.2316C69.8268 48.6937 67.7694 46.6363 65.2315 46.6363Z" fill="white"/>
<path d="M60.4346 42.9142C59.1889 42.9142 58.1791 43.924 58.1791 45.1697C58.1791 46.4153 59.1889 47.4251 60.4346 47.4251C61.6803 47.4251 62.6901 46.4153 62.6901 45.1697C62.6901 43.924 61.6803 42.9142 60.4346 42.9142Z" fill="white"/>
<path d="M106.906 40.5239C102.092 40.5239 98.1887 44.4267 98.1887 49.2411C98.1887 54.0555 102.092 57.9584 106.906 57.9584C111.72 57.9584 115.623 54.0555 115.623 49.2411C115.623 44.4267 111.72 40.5239 106.906 40.5239Z" fill="#383A47"/>
<path d="M109.044 46.6363C106.507 46.6363 104.449 48.6937 104.449 51.2316C104.449 53.7695 106.507 55.8268 109.044 55.8268C111.582 55.8268 113.64 53.7695 113.64 51.2316C113.64 48.6937 111.582 46.6363 109.044 46.6363Z" fill="white"/>
<path d="M104.247 42.9142C103.002 42.9142 101.992 43.924 101.992 45.1697C101.992 46.4153 103.002 47.4251 104.247 47.4251C105.493 47.4251 106.503 46.4153 106.503 45.1697C106.503 43.924 105.493 42.9142 104.247 42.9142Z" fill="white"/>
<path fill-rule="evenodd" clip-rule="evenodd" d="M106.906 59.1147C106.906 59.1147 110.833 63.6299 110.833 65.7972C110.833 67.9645 109.074 69.7241 106.906 69.7241C104.739 69.7241 102.979 67.9645 102.979 65.7972C102.979 63.6299 106.906 59.1147 106.906 59.1147Z" fill="#F3F6E7"/>
<path fill-rule="evenodd" clip-rule="evenodd" d="M68.4096 85.8454C68.4096 76.6894 75.8423 69.2559 85.0011 69.2559C94.1564 69.2559 101.589 76.6894 101.589 85.8454C101.589 86.6058 102.205 87.223 102.965 87.223C103.728 87.223 104.344 86.6058 104.344 85.8454C104.344 75.1685 95.6759 66.5002 85.0011 66.5002C74.3229 66.5002 65.6543 75.1685 65.6543 85.8454C65.6543 86.6058 66.2705 87.223 67.0337 87.223C67.7934 87.223 68.4096 86.6058 68.4096 85.8454Z" fill="#383A47"/>
</svg>
